<?xml version="1.0" encoding="UTF-8"?>
<svg version="1.1" xmlns="http://www.w3.org/2000/svg" width="538" height="598">
<path d="M0 0 C1.92050443 0.80640719 3.84537258 1.60246543 5.7734375 2.390625 C7.97552239 3.34013083 10.17594452 4.29349898 12.375 5.25 C13.6033411 5.78092155 14.83186213 6.31142696 16.06054688 6.84155273 C18.68516552 7.97421486 21.30907467 9.10850008 23.93261719 10.24365234 C27.97450468 11.99084952 32.02163265 13.72564123 36.0703125 15.45703125 C36.75282074 15.74893341 37.43532898 16.04083557 38.13851929 16.34158325 C39.54329072 16.94237077 40.94806575 17.54314988 42.35284424 18.1439209 C57.52417284 24.63439804 72.67454756 31.17306487 87.82177734 37.71954346 C104.52674496 44.93868287 121.24771686 52.11977003 137.97851562 59.27880859 C143.96031555 61.83861896 149.94043163 64.40235843 155.9206543 66.96585083 C158.75433121 68.18050665 161.58810624 69.39493348 164.421875 70.609375 C168.61458333 72.40625 172.80729167 74.203125 177 76 C176 79 176 79 173.73901367 80.23242188 C172.72556885 80.64041016 171.71212402 81.04839844 170.66796875 81.46875 C169.50031982 81.94723389 168.3326709 82.42571777 167.12963867 82.91870117 C166.49174408 83.17444916 165.85384949 83.43019714 165.19662476 83.69369507 C161.66299801 85.11181541 158.14531158 86.56874823 154.625 88.01953125 C153.86015793 88.33360428 153.09531586 88.64767731 152.30729675 88.9712677 C142.71454281 92.92029242 133.20451902 97.06018883 123.6875 101.1875 C119.90268138 102.8263014 116.11738601 104.46399994 112.33203125 106.1015625 C110.91673882 106.71400566 110.91673882 106.71400566 109.47285461 107.33882141 C99.61639561 111.6022138 89.74699754 115.83523744 79.875 120.0625 C79.01960632 120.42886566 78.16421265 120.79523132 77.28289795 121.17269897 C71.18897083 123.78266901 65.09453041 126.39143909 59 129 C53.42664266 131.38558221 47.8534209 133.77147873 42.28076172 136.15869141 C38.68577568 137.69857874 35.08966795 139.23580114 31.49267578 140.77099609 C24.12343759 143.9195219 16.7657325 147.08229516 9.46484375 150.38671875 C8.38936279 150.87011719 7.31388184 151.35351562 6.20581055 151.8515625 C4.31965182 152.70404954 2.43892509 153.56873103 0.56567383 154.44921875 C-0.23459229 154.81015625 -1.0348584 155.17109375 -1.859375 155.54296875 C-2.52420898 155.85258545 -3.18904297 156.16220215 -3.87402344 156.48120117 C-9.46306231 157.84508583 -14.67456831 155.05779542 -19.6953125 152.82421875 C-20.43242462 152.50289978 -21.16953674 152.18158081 -21.9289856 151.8505249 C-24.33036212 150.80224842 -26.72758978 149.74481159 -29.125 148.6875 C-30.79230959 147.95830242 -32.45995618 147.22987491 -34.12792969 146.50219727 C-37.49101196 145.03456953 -40.85288089 143.56421783 -44.21386719 142.09179688 C-53.10823881 138.19942697 -62.03299734 134.3783658 -70.96875 130.58203125 C-74.74083975 128.97853769 -78.48884311 127.33588247 -82.21875 125.63671875 C-82.99702148 125.29133057 -83.77529297 124.94594238 -84.57714844 124.59008789 C-85.95334161 123.97884164 -87.32239641 123.35103434 -88.68066406 122.70092773 C-93.70568428 120.50877287 -97.05956649 121.2414042 -102 123 C-102.80050781 123.28101562 -103.60101563 123.56203125 -104.42578125 123.8515625 C-105.04839844 124.10679688 -105.67101562 124.36203125 -106.3125 124.625 C-110 126 -110 126 -113 126 C-113 126.66 -113 127.32 -113 128 C-111.22689453 128.54914063 -111.22689453 128.54914063 -109.41796875 129.109375 C-103.27944813 131.16150018 -97.37604289 133.74899349 -91.44415283 136.32461548 C-87.64714672 137.97295644 -83.84453879 139.60831325 -80.04296875 141.24609375 C-79.20282227 141.60845627 -78.36267578 141.97081879 -77.49707031 142.34416199 C-66.27916857 147.17939597 -55.03884165 151.96220055 -43.7996521 156.74768066 C-40.15558933 158.29947379 -36.51197541 159.85231715 -32.8684082 161.40527344 C-30.60240172 162.37050237 -28.33637092 163.33567424 -26.0703125 164.30078125 C-25.02591507 164.74599625 -23.98151764 165.19121124 -22.9054718 165.6499176 C-21.45203621 166.2685392 -21.45203621 166.2685392 -19.96923828 166.8996582 C-19.12660431 167.25856644 -18.28397034 167.61747467 -17.415802 167.98725891 C-16.61858734 168.32146347 -15.82137268 168.65566803 -15 169 C-14.13968674 169.37639618 -13.27937347 169.75279236 -12.39299011 170.14059448 C-6.15297415 172.38160004 0.19698219 168.89917825 5.88671875 166.38671875 C6.73312424 166.02114365 7.57952972 165.65556854 8.45158386 165.27891541 C11.20036242 164.08960897 13.94385962 162.88860598 16.6875 161.6875 C18.59549569 160.85966058 20.50386457 160.03268076 22.41259766 159.20654297 C26.20597339 157.56363387 29.99755972 155.91670731 33.78759766 154.26611328 C40.47125078 151.35715404 47.17197081 148.48898596 53.875 145.625 C56.07432793 144.68254641 58.2735481 143.73984131 60.47265625 142.796875 C65.02142836 140.84730303 69.57104283 138.89971043 74.12109375 136.953125 C75.31162354 136.44346191 76.50215332 135.93379883 77.72875977 135.40869141 C80.08687707 134.39951552 82.4454269 133.3913496 84.80444336 132.38427734 C90.4523755 129.96883474 96.08569257 127.52669941 101.6953125 125.0234375 C102.74936279 124.55566895 103.80341309 124.08790039 104.8894043 123.60595703 C106.86574026 122.72677642 108.83879736 121.84017303 110.80786133 120.94482422 C111.68466553 120.55568848 112.56146973 120.16655273 113.46484375 119.765625 C114.224021 119.42305664 114.98319824 119.08048828 115.76538086 118.72753906 C118.2850993 117.90717842 120.36661497 117.86889635 123 118 C135.89206524 140.20300125 135.89206524 140.20300125 136.26269531 149.83251953 C136.53908628 155.01304763 136.77071604 159.26747237 140.70703125 162.98046875 C143.66610573 165.36389153 146.83221861 167.44203074 149.98730469 169.5546875 C153.53872769 172.10495729 156.65468128 175.11070027 159.8125 178.125 C160.76153198 179.02496704 160.76153198 179.02496704 161.72973633 179.94311523 C163.49274782 181.62236112 165.24721396 183.31009417 167 185 C168.30130859 186.23943359 168.30130859 186.23943359 169.62890625 187.50390625 C181.85053147 199.38545147 192.17494142 213.45703887 201 228 C201.37769531 228.61472168 201.75539063 229.22944336 202.14453125 229.86279297 C220.57656552 259.94650605 231.99742075 292.88746531 236 328 C236.0942627 328.81291504 236.18852539 329.62583008 236.28564453 330.46337891 C237.12570694 338.54691328 237.2431445 346.63041599 237.25 354.75 C237.25067474 355.47476532 237.25134949 356.19953064 237.25204468 356.94625854 C237.23312053 369.83183177 236.28524696 382.30068472 234 395 C233.83371094 395.96131836 233.66742188 396.92263672 233.49609375 397.91308594 C227.82125334 430.03898806 215.87935181 463.75375902 196 490 C195.39929688 490.85207031 194.79859375 491.70414062 194.1796875 492.58203125 C180.9596728 511.28808443 165.07814542 528.9417437 147 543 C146.09024414 543.70842041 146.09024414 543.70842041 145.16210938 544.43115234 C110.5969109 571.21659652 69.85291272 589.13456595 26.16577148 593.76611328 C24.77238085 593.91658879 23.38078414 594.0853935 21.99243164 594.27685547 C-32.24882617 601.45274172 -91.18156628 585.74635504 -136 555 C-136.87688477 554.4117041 -136.87688477 554.4117041 -137.77148438 553.81152344 C-151.16774594 544.79962691 -162.98698018 534.16237697 -174.4375 522.8125 C-175.1900708 522.0692749 -175.9426416 521.3260498 -176.71801758 520.56030273 C-177.40790771 519.86622314 -178.09779785 519.17214355 -178.80859375 518.45703125 C-179.42532959 517.83803955 -180.04206543 517.21904785 -180.67749023 516.58129883 C-182 515 -182 515 -182 513 C-182.66 513 -183.32 513 -184 513 C-187 509.53846154 -187 509.53846154 -187 507 C-187.66 507 -188.32 507 -189 507 C-190.5078125 505.3203125 -190.5078125 505.3203125 -192.125 503.125 C-192.66382813 502.40570313 -193.20265625 501.68640625 -193.7578125 500.9453125 C-195 499 -195 499 -195 497 C-195.66 497 -196.32 497 -197 497 C-198.06075791 495.37132863 -199.04104586 493.69061667 -200 492 C-200.87157388 490.6346146 -201.75126255 489.27439259 -202.63671875 487.91796875 C-209.12572184 477.88476693 -214.92659752 467.81530035 -220 457 C-220.43441406 456.12085938 -220.86882812 455.24171875 -221.31640625 454.3359375 C-247.62634251 399.63210964 -249.31036462 334.0900694 -230 277 C-225.5779151 264.55186627 -220.14458959 252.68118822 -214 241 C-213.52175781 240.05253906 -213.04351562 239.10507813 -212.55078125 238.12890625 C-208.1233301 229.59115661 -202.56186048 221.82287767 -197 214 C-196.2678125 212.95585937 -195.535625 211.91171875 -194.78125 210.8359375 C-188.92841016 202.73368533 -182.19690217 195.58726575 -175.25585938 188.41357422 C-173.89341475 187.00326697 -173.89341475 187.00326697 -173 185 C-172.34 185 -171.68 185 -171 185 C-171 184.34 -171 183.68 -171 183 C-170.236875 182.278125 -169.47375 181.55625 -168.6875 180.8125 C-163.34729617 175.2239146 -161.83006752 167.46356667 -159.75 160.1875 C-159.45061523 159.15375244 -159.15123047 158.12000488 -158.84277344 157.05493164 C-156.22670512 147.95393278 -153.76998974 138.81070205 -151.39746094 129.64331055 C-150.63658286 126.74966128 -149.83252837 123.87373876 -149 121 C-148.81252197 120.28207275 -148.62504395 119.56414551 -148.43188477 118.82446289 C-147.57366792 116.16947458 -146.61387569 114.3736816 -144.20361328 112.90649414 C-141.97390419 111.96827032 -139.75856097 111.24244566 -137.4375 110.5625 C-136.26670898 110.18061523 -136.26670898 110.18061523 -135.07226562 109.79101562 C-129.47715212 108 -129.47715212 108 -127 108 C-127 107.34 -127 106.68 -127 106 C-127.86286621 105.72397949 -128.72573242 105.44795898 -129.61474609 105.16357422 C-132.88013078 104.04120126 -136.00104415 102.76550755 -139.1640625 101.3828125 C-140.95215332 100.60417847 -140.95215332 100.60417847 -142.77636719 99.80981445 C-144.05928299 99.24829689 -145.34215971 98.68669004 -146.625 98.125 C-149.30934574 96.95316355 -151.99441998 95.78300369 -154.6796875 94.61328125 C-155.36357544 94.31514023 -156.04746338 94.01699921 -156.7520752 93.70982361 C-161.53474172 91.62811076 -166.32975517 89.57714607 -171.1328125 87.54296875 C-172.42627167 86.99398291 -173.71972875 86.44499212 -175.01318359 85.89599609 C-177.46985389 84.8536686 -179.92877861 83.81729594 -182.38916016 82.78369141 C-184.0450415 82.08058838 -184.0450415 82.08058838 -185.734375 81.36328125 C-186.70600586 80.95376221 -187.67763672 80.54424316 -188.67871094 80.12231445 C-191 79 -191 79 -193 77 C-181.75894894 70.9695496 -170.10155849 66.01774246 -158.33056641 61.13427734 C-156.96123652 60.5661446 -155.59193329 59.99794761 -154.22265625 59.4296875 C-153.53901001 59.1460434 -152.85536377 58.86239929 -152.15100098 58.57015991 C-145.00634962 55.59898423 -137.9068791 52.52639139 -130.8125 49.4375 C-128.31258032 48.35007571 -125.81254207 47.26292413 -123.3125 46.17578125 C-122.70027084 45.90946396 -122.08804169 45.64314667 -121.45726013 45.36875916 C-115.08514951 42.59869211 -108.70001938 39.85930654 -102.3125 37.125 C-101.18158936 36.6407959 -100.05067871 36.1565918 -98.88549805 35.65771484 C-95.90034077 34.37999837 -92.91503157 33.10263778 -89.92962646 31.82550049 C-83.49421789 29.07241173 -77.05926893 26.31825124 -70.625 23.5625 C-69.89009338 23.24775726 -69.15518677 22.93301453 -68.39801025 22.60873413 C-56.62464877 17.56524872 -44.86552272 12.48958742 -33.11767578 7.38696289 C-30.87139678 6.41141493 -28.62179385 5.44347858 -26.36865234 4.48388672 C-23.98792536 3.43517976 -21.67669342 2.35389404 -19.35400391 1.19189453 C-11.83709576 -2.481659 -7.54439223 -3.98779649 0 0 Z " fill="#FEBB66" transform="translate(273,3)"/>
<path d="M0 0 C1.92050443 0.80640719 3.84537258 1.60246543 5.7734375 2.390625 C7.97552239 3.34013083 10.17594452 4.29349898 12.375 5.25 C13.6033411 5.78092155 14.83186213 6.31142696 16.06054688 6.84155273 C18.68516552 7.97421486 21.30907467 9.10850008 23.93261719 10.24365234 C27.97450468 11.99084952 32.02163265 13.72564123 36.0703125 15.45703125 C36.75282074 15.74893341 37.43532898 16.04083557 38.13851929 16.34158325 C39.54329072 16.94237077 40.94806575 17.54314988 42.35284424 18.1439209 C57.52417284 24.63439804 72.67454756 31.17306487 87.82177734 37.71954346 C104.52674496 44.93868287 121.24771686 52.11977003 137.97851562 59.27880859 C143.96031555 61.83861896 149.94043163 64.40235843 155.9206543 66.96585083 C158.75433121 68.18050665 161.58810624 69.39493348 164.421875 70.609375 C168.61458333 72.40625 172.80729167 74.203125 177 76 C176 79 176 79 173.73901367 80.23242188 C172.72556885 80.64041016 171.71212402 81.04839844 170.66796875 81.46875 C169.50031982 81.94723389 168.3326709 82.42571777 167.12963867 82.91870117 C166.49174408 83.17444916 165.85384949 83.43019714 165.19662476 83.69369507 C161.66299801 85.11181541 158.14531158 86.56874823 154.625 88.01953125 C153.86015793 88.33360428 153.09531586 88.64767731 152.30729675 88.9712677 C142.71454281 92.92029242 133.20451902 97.06018883 123.6875 101.1875 C119.90268138 102.8263014 116.11738601 104.46399994 112.33203125 106.1015625 C110.91673882 106.71400566 110.91673882 106.71400566 109.47285461 107.33882141 C99.61639561 111.6022138 89.74699754 115.83523744 79.875 120.0625 C79.01960632 120.42886566 78.16421265 120.79523132 77.28289795 121.17269897 C71.18897083 123.78266901 65.09453041 126.39143909 59 129 C53.42664266 131.38558221 47.8534209 133.77147873 42.28076172 136.15869141 C38.68577568 137.69857874 35.08966795 139.23580114 31.49267578 140.77099609 C24.12343759 143.9195219 16.7657325 147.08229516 9.46484375 150.38671875 C8.38936279 150.87011719 7.31388184 151.35351562 6.20581055 151.8515625 C4.31965182 152.70404954 2.43892509 153.56873103 0.56567383 154.44921875 C-0.23459229 154.81015625 -1.0348584 155.17109375 -1.859375 155.54296875 C-2.52420898 155.85258545 -3.18904297 156.16220215 -3.87402344 156.48120117 C-9.46307073 157.84508789 -14.67455787 155.05778375 -19.6953125 152.82421875 C-20.43246994 152.50289978 -21.16962738 152.18158081 -21.92912292 151.8505249 C-24.33047964 150.80230504 -26.72767075 149.74489402 -29.125 148.6875 C-30.79158636 147.95832376 -32.45850041 147.22989603 -34.12573242 146.50219727 C-37.48799373 145.03436874 -40.84907233 143.56388027 -44.20947266 142.09179688 C-50.89380802 139.16797343 -57.6023196 136.30137405 -64.3125 133.4375 C-73.8961075 129.33912982 -83.46301809 125.20574979 -93 121 C-93 120.34 -93 119.68 -93 119 C-77.8812883 113.16584781 -62.78046382 107.42071288 -47.35546875 102.4375 C-41.68152364 100.59217817 -36.13622035 98.46103552 -30.59765625 96.24609375 C-29.85193359 95.94896484 -29.10621094 95.65183594 -28.33789062 95.34570312 C-26.82298077 94.74103953 -25.3099402 94.13167113 -23.79882812 93.51757812 C-19.26272233 91.72113933 -14.82449679 90.38173428 -10.04077148 89.41430664 C-8.00931261 89.0018906 -6.00733604 88.51613991 -4 88 C-5.94202361 82.04151847 -8.02719967 76.15228852 -10.23046875 70.28515625 C-11 68 -11 68 -11 66 C-31.19380545 72.48500256 -51.12583016 79.83433971 -70.84399414 87.64160156 C-77.46554474 90.23692774 -84.19959518 92.45643068 -90.95703125 94.66796875 C-97.37335632 96.76923007 -103.70326597 99.08296333 -109.9765625 101.578125 C-110.68216309 101.85398437 -111.38776367 102.12984375 -112.11474609 102.4140625 C-113.49925899 102.95608996 -114.88010271 103.50762291 -116.25634766 104.0703125 C-121.70922573 106.19292769 -126.34088022 106.88527843 -131.96484375 105.01293945 C-132.94582031 104.55105225 -133.92679688 104.08916504 -134.9375 103.61328125 C-136.06551025 103.0929834 -137.19352051 102.57268555 -138.35571289 102.03662109 C-139.24590622 101.61542999 -139.24590622 101.61542999 -140.15408325 101.18572998 C-143.33905188 99.67904768 -146.54324091 98.21427562 -149.74609375 96.74609375 C-150.74605629 96.28592865 -150.74605629 96.28592865 -151.76622009 95.81646729 C-160.11420257 91.9959924 -168.60546388 88.51185477 -177.10375977 85.04141235 C-179.02024741 84.25860384 -180.93401185 83.46941488 -182.84765625 82.6796875 C-183.94086182 82.23351074 -185.03406738 81.78733398 -186.16040039 81.32763672 C-188.7545123 80.11477621 -190.7990958 78.81540504 -193 77 C-181.75894894 70.9695496 -170.10155849 66.01774246 -158.33056641 61.13427734 C-156.96123652 60.5661446 -155.59193329 59.99794761 -154.22265625 59.4296875 C-153.19718689 59.00422134 -153.19718689 59.00422134 -152.15100098 58.57015991 C-145.00634962 55.59898423 -137.9068791 52.52639139 -130.8125 49.4375 C-128.31258032 48.35007571 -125.81254207 47.26292413 -123.3125 46.17578125 C-122.70027084 45.90946396 -122.08804169 45.64314667 -121.45726013 45.36875916 C-115.08514951 42.59869211 -108.70001938 39.85930654 -102.3125 37.125 C-101.18158936 36.6407959 -100.05067871 36.1565918 -98.88549805 35.65771484 C-95.90034077 34.37999837 -92.91503157 33.10263778 -89.92962646 31.82550049 C-83.49421789 29.07241173 -77.05926893 26.31825124 -70.625 23.5625 C-69.89009338 23.24775726 -69.15518677 22.93301453 -68.39801025 22.60873413 C-56.62464877 17.56524872 -44.86552272 12.48958742 -33.11767578 7.38696289 C-30.87139678 6.41141493 -28.62179385 5.44347858 -26.36865234 4.48388672 C-23.98792536 3.43517976 -21.67669342 2.35389404 -19.35400391 1.19189453 C-11.83709576 -2.481659 -7.54439223 -3.98779649 0 0 Z " fill="#030302" transform="translate(273,3)"/>
<path d="M0 0 C1.42230224 -0.01145587 2.84456369 -0.03180529 4.26660156 -0.06152344 C16.73091553 -0.32110601 27.28678528 2.02787747 38.60913086 7.36938477 C40.42140432 8.21654218 42.28578443 8.94983384 44.15209961 9.67016602 C47.80268372 11.39589668 50.66020215 13.47193046 53.79272461 15.99047852 C55.66497707 17.4877941 55.66497707 17.4877941 58.58959961 18.29516602 C60.30834961 20.07250977 60.30834961 20.07250977 62.08959961 22.23266602 C64.21835982 24.80491794 65.77351105 26.41777365 68.58959961 28.29516602 C68.58959961 28.95516602 68.58959961 29.61516602 68.58959961 30.29516602 C69.24959961 30.29516602 69.90959961 30.29516602 70.58959961 30.29516602 C70.58959961 31.61516602 70.58959961 32.93516602 70.58959961 34.29516602 C71.24959961 34.29516602 71.90959961 34.29516602 72.58959961 34.29516602 C75.58959961 40.04516602 75.58959961 40.04516602 75.58959961 42.29516602 C76.24959961 42.29516602 76.90959961 42.29516602 77.58959961 42.29516602 C83.69656454 56.10126888 84.63499951 71.49252549 81.58959961 86.29516602 C80.92959961 86.29516602 80.26959961 86.29516602 79.58959961 86.29516602 C79.43491211 87.65641602 79.43491211 87.65641602 79.27709961 89.04516602 C78.56899395 92.3925746 77.67408601 93.68955802 75.58959961 96.29516602 C74.88445115 98.44250528 74.88445115 98.44250528 74.58959961 100.29516602 C73.92959961 100.29516602 73.26959961 100.29516602 72.58959961 100.29516602 C72.40397461 101.16141602 72.21834961 102.02766602 72.02709961 102.92016602 C70.37346542 106.80261151 68.62025273 108.23725984 65.38256836 110.78735352 C63.67173143 112.22609655 62.43275107 113.64417173 61.08959961 115.42016602 C58.93145601 117.90203115 57.783044 118.92224295 55.02709961 120.42016602 C51.66244903 121.99318363 51.66244903 121.99318363 50.01538086 124.12329102 C46.29516265 127.4541144 41.9180321 129.0204015 37.33959961 130.92016602 C36.42307617 131.31461914 35.50655273 131.70907227 34.56225586 132.11547852 C24.42977985 136.39395626 15.97215338 137.62230071 5.01611328 137.5559082 C2.89644108 137.54513726 0.77760628 137.55587437 -1.34204102 137.56860352 C-2.70206891 137.56728268 -4.06209629 137.56472187 -5.42211914 137.56079102 C-6.64374756 137.55853516 -7.86537598 137.5562793 -9.12402344 137.55395508 C-12.35445303 137.29957165 -14.48620828 136.62023889 -17.41040039 135.29516602 C-18.70813659 134.93102228 -20.01442375 134.59561136 -21.32836914 134.29516602 C-22.02510742 134.13016602 -22.7218457 133.96516602 -23.43969727 133.79516602 C-24.88962345 133.45925552 -26.34015782 133.12596041 -27.79125977 132.79516602 C-33.19794618 131.50762023 -33.19794618 131.50762023 -35.41040039 129.29516602 C-38.75770435 127.97626732 -42.14305484 126.79821446 -45.53930664 125.61157227 C-46.96049805 124.95995117 -46.96049805 124.95995117 -48.41040039 124.29516602 C-48.74040039 123.30516602 -49.07040039 122.31516602 -49.41040039 121.29516602 C-50.19415039 121.21266602 -50.97790039 121.13016602 -51.78540039 121.04516602 C-54.41040039 120.29516602 -54.41040039 120.29516602 -55.53540039 118.35766602 C-55.82415039 117.67704102 -56.11290039 116.99641602 -56.41040039 116.29516602 C-57.89540039 115.30516602 -57.89540039 115.30516602 -59.41040039 114.29516602 C-59.41040039 113.30516602 -59.41040039 112.31516602 -59.41040039 111.29516602 C-60.0046582 111.03219727 -60.59891602 110.76922852 -61.21118164 110.49829102 C-64.78958912 108.54065424 -67.1589715 105.6618538 -69.41040039 102.29516602 C-70.28540039 98.85766602 -70.28540039 98.85766602 -70.41040039 96.29516602 C-71.73040039 95.96516602 -73.05040039 95.63516602 -74.41040039 95.29516602 C-74.60375977 94.57071289 -74.79711914 93.84625977 -74.99633789 93.09985352 C-75.25672852 92.13305664 -75.51711914 91.16625977 -75.78540039 90.17016602 C-76.16825195 88.74317383 -76.16825195 88.74317383 -76.55883789 87.28735352 C-77.36326403 84.2940329 -77.36326403 84.2940329 -78.49243164 81.46704102 C-82.78375535 66.63914804 -78.280319 50.62193423 -71.23071289 37.49438477 C-64.87787331 26.32920103 -56.00208691 19.3292155 -45.41040039 12.29516602 C-44.65243164 11.76793945 -43.89446289 11.24071289 -43.11352539 10.69750977 C-30.14790701 2.191542 -15.20380024 0.08487937 0 0 Z " fill="#E9FCB6" transform="translate(145.410400390625,269.704833984375)"/>
<path d="M0 0 C0.92949463 0.00080566 1.85898926 0.00161133 2.81665039 0.00244141 C12.82708746 0.09035054 22.63259385 0.77996959 32.125 4.1875 C32.125 4.8475 32.125 5.5075 32.125 6.1875 C33.06859375 6.29964844 33.06859375 6.29964844 34.03125 6.4140625 C40.93086583 7.47394325 44.84316313 9.77059275 50.125 14.1875 C51.07375 14.785625 52.0225 15.38375 53 16 C59.79737052 20.75815936 66.21163002 26.47256102 71.125 33.1875 C71.125 33.8475 71.125 34.5075 71.125 35.1875 C71.785 35.1875 72.445 35.1875 73.125 35.1875 C73.45113281 35.91195312 73.77726563 36.63640625 74.11328125 37.3828125 C74.55027344 38.34960938 74.98726562 39.31640625 75.4375 40.3125 C75.89382813 41.32570313 76.35015625 42.33890625 76.8203125 43.3828125 C78.11420969 46.25830899 78.11420969 46.25830899 79.8125 49.1875 C84.93960568 60.9065987 84.00604393 73.90874092 80.9375 86 C80.74148193 86.78826172 80.54546387 87.57652344 80.34350586 88.38867188 C76.46698588 102.50889962 65.74295954 113.80188214 54.125 122.1875 C53.40699219 122.73148437 52.68898438 123.27546875 51.94921875 123.8359375 C46.66864885 127.63949242 41.15565915 129.91844654 35.04296875 132.109375 C32.24726675 133.07221713 32.24726675 133.07221713 30.2121582 134.18603516 C21.9512384 138.14980788 12.06189018 137.58797697 3.125 137.5625 C2.10052765 137.56218277 2.10052765 137.56218277 1.05535889 137.56185913 C-13.15301597 137.51798173 -27.92621483 136.81117074 -39.875 128.1875 C-40.60976563 127.68347656 -41.34453125 127.17945313 -42.1015625 126.66015625 C-42.97941406 125.93119141 -42.97941406 125.93119141 -43.875 125.1875 C-43.875 124.5275 -43.875 123.8675 -43.875 123.1875 C-45.091875 123.125625 -46.30875 123.06375 -47.5625 123 C-52.17019249 122.40389992 -53.79200816 120.72166137 -56.875 117.1875 C-58.38128114 115.81716481 -59.90344744 114.46417292 -61.4375 113.125 C-67.67908654 107.66225962 -67.67908654 107.66225962 -69.875 105.1875 C-69.875 104.1975 -69.875 103.2075 -69.875 102.1875 C-70.535 102.1875 -71.195 102.1875 -71.875 102.1875 C-72.15085937 101.21683594 -72.42671875 100.24617188 -72.7109375 99.24609375 C-73.29650488 97.18834596 -73.89091756 95.13473171 -74.50878906 93.08642578 C-79.87626032 75.26018183 -81.11445149 60.46332337 -73.0625 43 C-69.30853637 36.02413059 -64.69410616 29.5701732 -58.875 24.1875 C-58.44574219 23.6925 -58.01648438 23.1975 -57.57421875 22.6875 C-48.14530296 12.16219865 -35.41212931 6.24373533 -21.875 3.1875 C-20.69035156 2.8471875 -19.50570312 2.506875 -18.28515625 2.15625 C-12.04896121 0.38468486 -6.45911835 -0.00577894 0 0 Z " fill="#E8FCB6" transform="translate(389.875,268.8125)"/>
<path d="M0 0 C0.99 0.33 1.98 0.66 3 1 C3.09354426 24.67021917 3.16402868 48.34041053 3.20724869 72.01077747 C3.2278521 83.00195822 3.25593026 93.99302395 3.30175781 104.98413086 C3.34169354 114.5667533 3.36744895 124.14929241 3.37635398 133.73199576 C3.38155731 138.80347397 3.39374073 143.87471385 3.42292023 148.94611549 C3.45019578 153.72561567 3.45842055 158.50478073 3.45243073 163.28435135 C3.45352555 165.03259926 3.46140681 166.78085909 3.4768219 168.52903938 C3.56448999 178.98981578 3.51688175 188.98900632 -3.04296875 197.71875 C-9.63891739 203.19735215 -15.31290021 206.44588653 -24.0625 205.9375 C-34.35862249 204.4529428 -41.16726098 198.2625552 -47.65625 190.59375 C-51.58626482 186.24453359 -55.81437193 182.18419791 -60.02124023 178.10400391 C-60.66262939 177.47413574 -61.30401855 176.84426758 -61.96484375 176.1953125 C-62.5487085 175.62828613 -63.13257324 175.06125977 -63.73413086 174.47705078 C-65 173 -65 173 -65 171 C-65.66 171 -66.32 171 -67 171 C-68.33203125 169.64453125 -68.33203125 169.64453125 -69.8125 167.8125 C-72.94396813 163.95903118 -76.42394862 160.5355249 -79.97485352 157.07592773 C-82.28068454 154.82728928 -84.57787022 152.57002409 -86.875 150.3125 C-88.04095703 149.18424805 -88.04095703 149.18424805 -89.23046875 148.03320312 C-101.51549427 135.90303087 -110.97341248 120.56840525 -111.375 102.8125 C-110.99408096 94.93141641 -110.29979767 85.81237682 -106 79 C-103.65045264 77.47043272 -101.82261743 76.49881782 -99.26953125 75.5 C-98.26740852 75.07364258 -98.26740852 75.07364258 -97.24504089 74.63867188 C-95.10966044 73.73608631 -92.96230975 72.86757326 -90.8125 72 C-89.41897982 71.41892073 -88.02639067 70.8356034 -86.63476562 70.25 C-83.84667069 69.08013233 -81.05515993 67.91912333 -78.26025391 66.765625 C-73.8751517 64.95146731 -69.49889885 63.11864753 -65.13671875 61.25 C-64.12736015 60.82750977 -64.12736015 60.82750977 -63.09761047 60.39648438 C-58.49834699 58.4398562 -58.49834699 58.4398562 -55 55 C-55.1762044 52.96128755 -55.1762044 52.96128755 -56 51 C-56.33 50.01 -56.66 49.02 -57 48 C-58.98636298 47.29373761 -60.98848259 46.63106429 -63 46 C-64.358664 45.03469698 -65.69745008 44.03977954 -67 43 C-61.09887632 38.65570543 -55.01504929 34.72868975 -48.75 30.9375 C-41.75942082 26.70614572 -34.82914359 22.39076467 -27.9375 18 C-26.55582642 17.12190674 -26.55582642 17.12190674 -25.14624023 16.22607422 C-20.7129345 13.4005713 -16.30197553 10.54805654 -11.9296875 7.62890625 C-10.75611694 6.85063477 -10.75611694 6.85063477 -9.55883789 6.05664062 C-8.09629179 5.08383526 -6.63939554 4.10246402 -5.18920898 3.11132812 C-3.5088479 1.99599398 -1.75900417 0.98665493 0 0 Z " fill="#FEBB66" transform="translate(535,27)"/>
<path d="M0 0 C3.66564926 1.1826683 6.73507928 2.25906073 9.875 4.5 C14.07255929 7.39949054 18.35342728 10.12410821 22.6875 12.8125 C29.08057986 16.78823632 35.42985397 20.82570234 41.75390625 24.91015625 C44.74141751 26.83352391 47.7434171 28.73165397 50.75 30.625 C55.94825914 33.92315253 60.98964629 37.42428119 66 41 C63.00166639 44.39285118 59.42125643 45.84013094 55.375 47.71875 C53.12701112 48.93148084 51.67930088 50.09973848 50 52 C52.5276971 57.63870891 55.47869441 59.41519747 61.1796875 61.70703125 C61.7882962 61.95490891 62.39690491 62.20278656 63.0239563 62.45817566 C64.971481 63.25014667 66.92289347 64.03189899 68.875 64.8125 C71.41579217 65.83560525 73.95466295 66.86334931 76.4921875 67.89453125 C77.43334915 68.27636314 77.43334915 68.27636314 78.39352417 68.66590881 C83.73361916 70.85088483 88.96355064 73.2476131 94.18701172 75.69848633 C96.44432888 76.74290204 98.70044783 77.72661792 101.0078125 78.65234375 C102.03648438 79.07644531 103.06515625 79.50054687 104.125 79.9375 C105.17945312 80.35902344 106.23390625 80.78054687 107.3203125 81.21484375 C110.98083089 83.65341067 111.70106004 85.83739043 113 90 C115.53152185 106.51435733 112.61228199 121.88066016 102.82421875 135.6875 C95.67859405 144.74576514 87.31583227 152.78690832 79.10229492 160.86132812 C75.80522432 164.11712266 72.60611537 167.39451473 69.5859375 170.91015625 C65.42357463 175.74451791 60.90666053 180.20186415 56.375 184.6875 C55.54226562 185.51572266 54.70953125 186.34394531 53.8515625 187.19726562 C52.25955763 188.78039786 50.66651919 190.36249165 49.07226562 191.94335938 C47.39531344 193.60766724 45.72286316 195.27612946 44.0546875 196.94921875 C38.51476627 202.47860781 33.20000307 205.74110938 25.25390625 206.13671875 C16.88243067 205.73033644 11.3987539 202.76921367 5.6875 196.75 C-1.31173187 187.59106548 -0.41210545 177.0117696 -0.34057617 166.08764648 C-0.33972902 164.27353428 -0.34020676 162.45942105 -0.34190369 160.64530945 C-0.34276163 155.74094911 -0.32516851 150.83681053 -0.30418181 145.93250155 C-0.28538139 140.79958147 -0.28366192 135.66665587 -0.28010559 130.53370667 C-0.27079501 120.82289932 -0.24619458 111.11219375 -0.21605712 101.40143114 C-0.18248239 90.3421969 -0.16601938 79.2829577 -0.15097082 68.22368515 C-0.11964415 45.48240043 -0.06690285 22.74120593 0 0 Z " fill="#FEBB66" transform="translate(0,27)"/>
<path d="M0 0 C16.75218932 28.85099271 16.75218932 28.85099271 13.55078125 46.47265625 C13 48.375 13 48.375 12 51 C11.34 51 10.68 51 10 51 C9.835 51.680625 9.67 52.36125 9.5 53.0625 C4.28943355 63.26652596 -7.87329502 67.31568003 -18.15234375 70.7109375 C-23.70502418 72.41790978 -29.32914211 73.75021583 -35 75 C-35.98339355 75.21930176 -36.96678711 75.43860352 -37.97998047 75.66455078 C-55.16294985 79.40137251 -72.14082355 81.02431704 -89.65527344 81.83691406 C-92.40186307 81.97083537 -95.14046898 82.13608582 -97.8828125 82.3359375 C-114.87446055 83.5347584 -131.97741127 83.17845685 -149 83 C-150.26569824 82.98743164 -151.53139648 82.97486328 -152.83544922 82.96191406 C-165.97287397 82.78252607 -178.91716712 81.84205577 -191.9375 80.125 C-193.7771936 79.88281738 -193.7771936 79.88281738 -195.65405273 79.63574219 C-202.32443484 78.69361074 -208.78558454 77.43294544 -215.28955078 75.6730957 C-218.16019714 74.96021766 -221.01159453 74.4886126 -223.9375 74.0625 C-235.91852538 72.1436639 -254.23593599 68.04761225 -262 58 C-262.28986532 51.07633667 -260.17190782 44.24464714 -258.1875 37.6875 C-257.91832764 36.77830811 -257.64915527 35.86911621 -257.37182617 34.93237305 C-256.83463553 33.12274517 -256.29380584 31.31419284 -255.74902344 29.50683594 C-255.08465152 27.28331218 -254.44576718 25.0550214 -253.8203125 22.8203125 C-253.48773438 21.66273438 -253.15515625 20.50515625 -252.8125 19.3125 C-252.53019531 18.31863281 -252.24789062 17.32476562 -251.95703125 16.30078125 C-251 14 -251 14 -248 12 C-245.765625 11.33203125 -245.765625 11.33203125 -243.25 10.8125 C-242.02023438 10.54373047 -242.02023438 10.54373047 -240.765625 10.26953125 C-234.53750877 9.66255382 -229.27137957 11.4656513 -223.68359375 14.0078125 C-222.97395981 14.32152298 -222.26432587 14.63523346 -221.53318787 14.95845032 C-219.98214976 15.64489941 -218.4327953 16.33516251 -216.88494873 17.02877808 C-212.59960739 18.94819934 -208.30101215 20.83756938 -204.00390625 22.73046875 C-203.07235718 23.1416243 -202.14080811 23.55277985 -201.18103027 23.97639465 C-188.46181899 29.57830204 -175.66510384 35.0000631 -162.875 40.4375 C-160.47190675 41.46040909 -158.06883022 42.48335748 -155.66577148 43.50634766 C-153.42047557 44.46141683 -151.17511718 45.41633913 -148.9296875 46.37109375 C-147.89798935 46.80996414 -146.8662912 47.24883453 -145.80332947 47.70100403 C-144.84713211 48.10703354 -143.89093475 48.51306305 -142.90576172 48.93139648 C-142.07519257 49.28427231 -141.24462341 49.63714813 -140.3888855 50.00071716 C-139.60055328 50.3304805 -138.81222107 50.66024384 -138 51 C-137.14099594 51.37574158 -136.28199188 51.75148315 -135.3969574 52.13861084 C-129.15467884 54.38188437 -122.80547852 50.90026485 -117.11328125 48.38671875 C-116.26687576 48.02114365 -115.42047028 47.65556854 -114.54841614 47.27891541 C-111.79963758 46.08960897 -109.05614038 44.88860598 -106.3125 43.6875 C-104.40450431 42.85966058 -102.49613543 42.03268076 -100.58740234 41.20654297 C-96.79402661 39.56363387 -93.00244028 37.91670731 -89.21240234 36.26611328 C-82.52874922 33.35715404 -75.82802919 30.48898596 -69.125 27.625 C-66.92567207 26.68254641 -64.7264519 25.73984131 -62.52734375 24.796875 C-57.97857164 22.84730303 -53.42895717 20.89971043 -48.87890625 18.953125 C-47.68837646 18.44346191 -46.49784668 17.93379883 -45.27124023 17.40869141 C-42.91312293 16.39951552 -40.5545731 15.3913496 -38.19555664 14.38427734 C-32.5476245 11.96883474 -26.91430743 9.52669941 -21.3046875 7.0234375 C-19.72361206 6.32178467 -19.72361206 6.32178467 -18.1105957 5.60595703 C-16.13425974 4.72677642 -14.16120264 3.84017303 -12.19213867 2.94482422 C-10.87693237 2.36112061 -10.87693237 2.36112061 -9.53515625 1.765625 C-8.775979 1.42305664 -8.01680176 1.08048828 -7.23461914 0.72753906 C-4.7149007 -0.09282158 -2.63338503 -0.13110365 0 0 Z " fill="#484746" transform="translate(396,121)"/>
<path d="M0 0 C0.7139946 -0.00095673 1.4279892 -0.00191345 2.16362 -0.00289917 C3.67410368 -0.00357925 5.1845903 -0.00173696 6.69506836 0.00244141 C8.99274373 0.00776851 11.29022152 0.00250287 13.58789062 -0.00390625 C15.05859418 -0.00324498 16.52929761 -0.0019628 18 0 C18.68145584 -0.00202423 19.36291168 -0.00404846 20.0650177 -0.00613403 C24.04453204 0.01314826 27.79404976 0.37047749 31.69921875 1.1328125 C31.69921875 1.7928125 31.69921875 2.4528125 31.69921875 3.1328125 C33.34921875 3.7928125 34.99921875 4.4528125 36.69921875 5.1328125 C36.69921875 5.7928125 36.69921875 6.4528125 36.69921875 7.1328125 C37.65828125 7.535 37.65828125 7.535 38.63671875 7.9453125 C40.69921875 9.1328125 40.69921875 9.1328125 41.69921875 12.1328125 C42.18245605 12.61290771 42.66569336 13.09300293 43.16357422 13.58764648 C44.86443728 15.29905544 45.46322379 16.59831782 46.26953125 18.85546875 C46.52605469 19.55865234 46.78257812 20.26183594 47.046875 20.98632812 C47.30339844 21.71529297 47.55992187 22.44425781 47.82421875 23.1953125 C49.56867008 28.24488043 49.56867008 28.24488043 51.69921875 33.1328125 C52.54577971 41.20193148 52.63085239 47.76612902 47.47265625 54.3046875 C44.78916588 57.07092867 42.01380629 59.18136702 38.69921875 61.1328125 C37.74402344 61.720625 37.74402344 61.720625 36.76953125 62.3203125 C32.0625 65.1328125 32.0625 65.1328125 29.69921875 65.1328125 C29.69921875 65.7928125 29.69921875 66.4528125 29.69921875 67.1328125 C27.90577903 68.08733459 26.09631669 69.01182329 24.2800293 69.92211914 C19.95281876 72.61027026 19.95281876 72.61027026 17.67715454 77.00216675 C17.33016455 80.54224926 17.30556606 83.94812604 17.40625 87.50390625 C17.39961838 88.78137222 17.39298676 90.0588382 17.38615417 91.37501526 C17.37836525 94.75283632 17.41768227 98.1232901 17.48034668 101.50006104 C17.53266389 104.95248776 17.52239506 108.40468579 17.51757812 111.85742188 C17.52076324 118.61713633 17.58612431 125.37409138 17.69921875 132.1328125 C18.7547998 131.97200195 19.81038086 131.81119141 20.89794922 131.64550781 C38.48253364 129.27379122 55.09084525 130.44732888 69.69921875 141.1328125 C69.10621047 144.45658731 68.01008771 146.26206798 65.76171875 148.7578125 C65.23707031 149.34820313 64.71242188 149.93859375 64.171875 150.546875 C63.03964469 151.76619995 61.87580253 152.95622872 60.69921875 154.1328125 C59.631875 153.19695312 59.631875 153.19695312 58.54296875 152.2421875 C51.03909366 146.67612631 40.89384679 146.82461651 31.88671875 146.6953125 C31.00371094 146.67307617 30.12070312 146.65083984 29.2109375 146.62792969 C23.78903648 146.64630209 20.0573019 147.48621937 15.3840332 150.27929688 C12.5647939 151.70750447 10.6316843 151.04920798 7.69921875 150.1328125 C6.53003906 149.62621094 5.36085938 149.11960937 4.15625 148.59765625 C-0.76942081 146.74673336 -5.39829156 146.67712455 -10.61328125 146.7578125 C-11.53592773 146.76578857 -12.45857422 146.77376465 -13.40917969 146.78198242 C-23.17232011 146.98341803 -23.17232011 146.98341803 -32.30078125 150.1328125 C-32.63078125 151.1228125 -32.96078125 152.1128125 -33.30078125 153.1328125 C-36.4256694 153.45663511 -37.81468128 153.52018811 -40.3203125 151.5234375 C-40.91199219 150.81703125 -41.50367188 150.110625 -42.11328125 149.3828125 C-42.71785156 148.68671875 -43.32242188 147.990625 -43.9453125 147.2734375 C-45.30078125 145.1328125 -45.30078125 145.1328125 -45.30078125 141.1328125 C-38.97685946 134.59809332 -30.55432821 131.58682693 -21.66015625 131.18359375 C-20.5515625 131.16683594 -19.44296875 131.15007812 -18.30078125 131.1328125 C-17.31174805 131.11226807 -17.31174805 131.11226807 -16.30273438 131.09130859 C-9.5345269 130.96139157 -2.98849603 130.94611139 3.69921875 132.1328125 C3.70753162 124.65654475 3.68362774 117.18110526 3.61894035 109.70509052 C3.5899051 106.23330631 3.57184178 102.76219629 3.57910156 99.2902832 C3.58696824 95.29573623 3.54666801 91.30292193 3.50390625 87.30859375 C3.51300018 86.06572098 3.52209412 84.82284821 3.53146362 83.54231262 C3.61598177 77.58811046 3.61598177 77.58811046 1.41119385 72.25375366 C-1.43593859 69.80274256 -4.74637198 68.28276844 -8.30078125 67.1328125 C-8.30078125 66.4728125 -8.30078125 65.8128125 -8.30078125 65.1328125 C-8.98140625 65.0503125 -9.66203125 64.9678125 -10.36328125 64.8828125 C-16.09866054 63.41846034 -20.37165501 60.45485136 -24.30078125 56.1328125 C-25.18765625 55.2871875 -26.07453125 54.4415625 -26.98828125 53.5703125 C-31.24724307 49.08113653 -30.74492584 44.02236961 -30.7265625 38.109375 C-30.11455261 32.39353949 -28.08198037 27.69836245 -25.75 22.49609375 C-24.55948987 19.73321174 -23.78746066 17.37608181 -23.23828125 14.4453125 C-22.09181837 10.39447699 -20.77703393 9.3964189 -17.30078125 7.1328125 C-16.41390625 6.3903125 -15.52703125 5.6478125 -14.61328125 4.8828125 C-12.30078125 3.1328125 -12.30078125 3.1328125 -10.30078125 3.1328125 C-10.30078125 2.4728125 -10.30078125 1.8128125 -10.30078125 1.1328125 C-6.79708961 -0.03508471 -3.64417705 -0.01072924 0 0 Z " fill="#FB861E" transform="translate(262.30078125,374.8671875)"/>
<path d="M0 0 C0.7933855 2.04099935 1.5846303 4.0828309 2.375 6.125 C2.81585938 7.26195313 3.25671875 8.39890625 3.7109375 9.5703125 C7 18.32121212 7 18.32121212 7 22 C3.32726396 23.71915304 -0.00959188 25.0780226 -4 25.8125 C-8.82534711 26.8018989 -13.19566846 28.60760095 -17.73876953 30.48242188 C-22.89687657 32.59535115 -28.10674542 34.49282432 -33.375 36.3125 C-41.2911539 39.04925403 -49.18348217 41.84545499 -57.0625 44.6875 C-58.59559814 45.24014526 -58.59559814 45.24014526 -60.15966797 45.80395508 C-61.1498291 46.16126709 -62.13999023 46.5185791 -63.16015625 46.88671875 C-64.12324707 47.23395996 -65.08633789 47.58120117 -66.07861328 47.93896484 C-68.09533053 48.67142792 -70.10917244 49.41183949 -72.12060547 50.15869141 C-73.60584717 50.70855713 -73.60584717 50.70855713 -75.12109375 51.26953125 C-76.45611938 51.76803589 -76.45611938 51.76803589 -77.81811523 52.27661133 C-80 53 -80 53 -82 53 C-82.495 53.99 -82.495 53.99 -83 55 C-84.90480433 55.5012643 -86.81268523 55.99374668 -88.734375 56.42578125 C-91.01496238 57.00379219 -93.12532951 57.76228275 -95.3125 58.625 C-99 60 -99 60 -102 60 C-102 60.66 -102 61.32 -102 62 C-103.42892578 62.1546875 -103.42892578 62.1546875 -104.88671875 62.3125 C-109.22207897 63.09669671 -112.11963535 63.889471 -116 66 C-118.57383715 70.24216656 -119.50696589 74.65982944 -120.46826172 79.46630859 C-121.25753375 83.22712821 -122.27093591 86.92203657 -123.26416016 90.63330078 C-124.05823929 93.60903342 -124.8266853 96.59042274 -125.58984375 99.57421875 C-126.98235878 104.97941253 -128.51111748 110.33312081 -130.07421875 115.69140625 C-131.11195491 119.40010889 -132.02983226 123.1330113 -132.9375 126.875 C-134.92199256 135.03625069 -137.40868448 143.01365054 -140 151 C-139.34 151 -138.68 151 -138 151 C-133.54211653 157.68682521 -132.64509185 166.12987938 -132 174 C-132.55429688 174.17015625 -133.10859375 174.3403125 -133.6796875 174.515625 C-134.40414062 174.75796875 -135.12859375 175.0003125 -135.875 175.25 C-136.59429687 175.48203125 -137.31359375 175.7140625 -138.0546875 175.953125 C-140.48191422 177.25934339 -140.8843158 178.54289006 -142 181 C-155.47996597 182.26599883 -164.64364681 181.76663827 -175.45703125 173.1875 C-176.29621094 172.465625 -177.13539063 171.74375 -178 171 C-177.48004316 167.36030214 -176.82179743 165.37482418 -174.25 162.75 C-171.24191303 159.44615388 -169.17290212 156.01004069 -167.09765625 152.06640625 C-166 150 -166 150 -164.25 147.3125 C-162.76127535 144.5583594 -162.35950006 142.09170049 -162 139 C-161.34 139 -160.68 139 -160 139 C-159.95101562 138.3709375 -159.90203125 137.741875 -159.8515625 137.09375 C-159.77679688 136.2378125 -159.70203125 135.381875 -159.625 134.5 C-159.55539063 133.6646875 -159.48578125 132.829375 -159.4140625 131.96875 C-158.48149794 125.28243804 -156.38214156 118.9115438 -154.29296875 112.515625 C-150.26883527 99.98045038 -146.88790978 87.27076964 -143.45092773 74.56494141 C-142.61344451 71.4744165 -141.76988408 68.38559733 -140.92578125 65.296875 C-140.6757283 64.36454041 -140.42567535 63.43220581 -140.16804504 62.47161865 C-136.50212823 49.08113212 -136.50212823 49.08113212 -133.13061523 46.65454102 C-132.44684814 46.43983154 -131.76308105 46.22512207 -131.05859375 46.00390625 C-130.31029297 45.75576172 -129.56199219 45.50761719 -128.79101562 45.25195312 C-128.01435547 45.02443359 -127.23769531 44.79691406 -126.4375 44.5625 C-125.65697266 44.30791016 -124.87644531 44.05332031 -124.07226562 43.79101562 C-118.47715212 42 -118.47715212 42 -116 42 C-116 41.34 -116 40.68 -116 40 C-115.25878906 39.78085938 -114.51757812 39.56171875 -113.75390625 39.3359375 C-101.05694705 35.51286288 -88.62063957 31.01645227 -76.22460938 26.31860352 C-70.90788282 24.31447716 -65.55482437 22.42636242 -60.1875 20.5625 C-46.42931831 15.7788212 -32.76388722 10.76935865 -19.22412109 5.39648438 C-15.58207064 3.96056893 -11.92334186 2.58599283 -8.2265625 1.296875 C-7.51322754 1.04776367 -6.79989258 0.79865234 -6.06494141 0.54199219 C-4 0 -4 0 0 0 Z " fill="#FCF113" transform="translate(262,69)"/>
<path d="M0 0 C4.27982736 2.08828037 9.14574261 4.53214531 10.7734375 9.234375 C10.84820312 9.81703125 10.92296875 10.3996875 11 11 C11.66 11 12.32 11 13 11 C25.76867138 29.73616041 26.71010314 55.57662302 22.8125 77.25 C18.89726019 93.38887585 14.03490055 106.48687622 0.0625 116 C-4.24793831 117.40749006 -7.66716811 117.34075392 -12 116 C-21.01758331 110.8497136 -26.75479581 99.47714497 -30 90 C-30.1328125 87.171875 -30.1328125 87.171875 -30 85 C-30.66 85 -31.32 85 -32 85 C-34.76276293 65.46331929 -37.64987607 42.33773726 -29 24 C-28.55280993 22.52373399 -28.1159181 21.0443226 -27.6875 19.5625 C-25.08960991 11.64768458 -19.58852291 5.90743072 -13 1 C-8.94241334 -1.02879333 -4.38974744 -0.69965126 0 0 Z " fill="#030402" transform="translate(383,283)"/>
<path d="M0 0 C0 0.66 0 1.32 0 2 C0.556875 2.226875 1.11375 2.45375 1.6875 2.6875 C11.77457513 8.4125967 16.00912266 19.4685048 18.96484375 30.046875 C19.31397033 31.36350966 19.65939531 32.68113509 20 34 C20.24878906 34.95390625 20.49757812 35.9078125 20.75390625 36.890625 C25.45413691 59.37284718 22.20176205 86.36680229 9.66015625 105.8046875 C6.07592121 110.54431125 2.14478814 114.99840188 -3.9375 116.0625 C-5.9296875 116.125 -5.9296875 116.125 -8 116 C-8.74507812 115.95875 -9.49015625 115.9175 -10.2578125 115.875 C-16.03748702 115.09131532 -18.81094553 112.76059178 -22.39453125 108.265625 C-22.92433594 107.51796875 -23.45414063 106.7703125 -24 106 C-24.66128906 105.06929688 -25.32257813 104.13859375 -26.00390625 103.1796875 C-28.10825362 99.82755686 -29.63816231 96.54149504 -31.125 92.875 C-31.62257812 91.67617188 -32.12015625 90.47734375 -32.6328125 89.2421875 C-36.04821395 79.5330778 -36.30175435 69.52848528 -36.20581055 59.33227539 C-36.18717575 57.27673334 -36.18530415 55.22163459 -36.18554688 53.16601562 C-36.14067963 43.14067963 -36.14067963 43.14067963 -35 42 C-34.70587978 40.65792516 -34.46085015 39.304997 -34.23828125 37.94921875 C-31.79797939 23.92489833 -28.65729032 12.01008995 -18.01171875 1.8046875 C-12.3399147 -1.59398108 -6.4093882 -0.76912658 0 0 Z " fill="#020302" transform="translate(172,283)"/>
<path d="M0 0 C0.66 0 1.32 0 2 0 C2 0.66 2 1.32 2 2 C3.299375 2.3403125 3.299375 2.3403125 4.625 2.6875 C8.5329021 4.2072397 11.64070845 5.47320567 14 9 C14.85297739 13.39142535 14.69702726 17.71725239 14.5859375 22.17578125 C14.57744781 23.45607712 14.56895813 24.73637299 14.56021118 26.0554657 C14.53737908 29.44767428 14.47851072 32.83832388 14.4119873 36.22991943 C14.35043962 39.69537894 14.32284041 43.16109967 14.29296875 46.62695312 C14.23194099 53.41934235 14.11451676 60.20745956 14 67 C4.1 67 -5.8 67 -16 67 C-15.505 66.01 -15.505 66.01 -15 65 C-6.42 64.67 2.16 64.34 11 64 C11 45.85 11 27.7 11 9 C9.68 8.67 8.36 8.34 7 8 C7 7.34 7 6.68 7 6 C6.34 6 5.68 6 5 6 C5 5.34 5 4.68 5 4 C4.360625 3.896875 3.72125 3.79375 3.0625 3.6875 C2.0415625 3.3471875 2.0415625 3.3471875 1 3 C0.67 2.01 0.34 1.02 0 0 Z " fill="#FDAA4D" transform="translate(252,440)"/>
<path d="M0 0 C0.33 0 0.66 0 1 0 C2.42770718 18.63667763 2.09576178 37.32350558 2 56 C2.83136475 55.98428955 3.66272949 55.9685791 4.51928711 55.95239258 C7.64475136 55.90084167 10.76999675 55.86344645 13.89575195 55.83520508 C15.89744576 55.81294542 17.89894275 55.77479854 19.90039062 55.73632812 C27.29844997 55.68042339 33.15303837 56.13645183 40 59 C38 60 38 60 28 58 C18.76 58 9.52 58 0 58 C0 38.86 0 19.72 0 0 Z " fill="#FCA547" transform="translate(280,449)"/>
<path d="M0 0 C1.38989136 0.0012085 1.38989136 0.0012085 2.80786133 0.00244141 C24.12761856 0.19011856 24.12761856 0.19011856 28.125 4.1875 C27.47660156 4.1153125 26.82820313 4.043125 26.16015625 3.96875 C4.10274098 1.88184606 -17.04167478 1.30750445 -36.875 12.1875 C-38.57291067 13.02156138 -40.28048772 13.83643386 -42 14.625 C-42.70382812 14.95371094 -43.40765625 15.28242188 -44.1328125 15.62109375 C-45.875 16.1875 -45.875 16.1875 -47.875 15.1875 C-39.59425107 9.38534259 -31.56428389 5.94917995 -21.875 3.1875 C-19.9878125 2.630625 -19.9878125 2.630625 -18.0625 2.0625 C-11.92297737 0.37714085 -6.34614189 -0.00567989 0 0 Z " fill="#F5E89B" transform="translate(389.875,268.8125)"/>
<path d="M0 0 C0.66 0.33 1.32 0.66 2 1 C-0.625 5.875 -0.625 5.875 -4 7 C-4.268125 7.845625 -4.53625 8.69125 -4.8125 9.5625 C-5.91470982 12.75310738 -6.89420967 14.35067431 -8.9375 16.9375 C-11.74310839 20.51448005 -13.39719592 23.7525692 -15 28 C-15.37125 28.825 -15.7425 29.65 -16.125 30.5 C-19.804041 41.01154572 -19.24953945 53.4147355 -14.95703125 63.546875 C-13.59557961 67.03663675 -13.28074919 70.28007322 -13 74 C-15 73 -15 73 -15.78125 70.70703125 C-16.0184375 69.75183594 -16.255625 68.79664063 -16.5 67.8125 C-17.24417932 64.85600499 -17.98949786 62.02761108 -19.07421875 59.17578125 C-23.41711612 44.27799408 -18.75668323 28.43919833 -11.8359375 15.2109375 C-8.56522818 9.49067566 -4.85325994 4.47993225 0 0 Z " fill="#F3EC9E" transform="translate(86,292)"/>
<path d="M0 0 C2.79224194 0.3079239 5.58371427 0.62112437 8.375 0.9375 C9.1690625 1.02451172 9.963125 1.11152344 10.78125 1.20117188 C16.7734375 1.88671875 16.7734375 1.88671875 19 3 C21.42243406 3.11076218 23.8152284 3.1640936 26.23828125 3.16796875 C26.95606247 3.17129715 27.67384369 3.17462555 28.41337585 3.17805481 C29.93402465 3.18312113 31.45468457 3.18546323 32.9753418 3.18530273 C35.29299485 3.18748166 37.61016605 3.20561898 39.92773438 3.22460938 C41.40624838 3.22754494 42.88476463 3.22952864 44.36328125 3.23046875 C45.39791252 3.24124702 45.39791252 3.24124702 46.45344543 3.25224304 C50.47834651 3.2333043 53.31283239 2.4976024 57 1 C59.3125 1.375 59.3125 1.375 61 2 C51.87348687 5.44783726 43.77974032 6.59159771 34.04931641 6.41162109 C31.97379466 6.37453171 29.90004142 6.37060727 27.82421875 6.37109375 C17.0375674 6.29192241 17.0375674 6.29192241 12 4 C9.90421754 3.42674959 7.7994263 2.88557559 5.6875 2.375 C4.61886719 2.11460937 3.55023438 1.85421875 2.44921875 1.5859375 C1.64097656 1.39257812 0.83273438 1.19921875 0 1 C0 0.67 0 0.34 0 0 Z " fill="#F4E498" transform="translate(116,401)"/>
<path d="M0 0 C4.98532479 4.98532479 5.20296367 15.39060978 5.5 22.1875 C5.35200566 27.92404265 4.20994236 33.27256267 2.8125 38.8125 C2.6165625 39.60100342 2.420625 40.38950684 2.21875 41.2019043 C0.70677458 46.70542524 -1.51508116 51.44818981 -5 56 C-5.33 56 -5.66 56 -6 56 C-6.25 53.8125 -6.25 53.8125 -6 51 C-5.36964844 50.26652344 -4.73929687 49.53304687 -4.08984375 48.77734375 C-1.57652422 45.43721256 -1.05285936 42.84123439 -0.3125 38.75 C0.92738854 32.07261146 0.92738854 32.07261146 2 31 C2.62460083 20.52704195 1.52230746 10.34353553 0 0 Z " fill="#F6F0A3" transform="translate(468,316)"/>
<path d="M0 0 C1.44422359 3.83883949 0.5115474 6.41661426 -0.6875 10.25 C-2.29107831 15.55839715 -3.75260542 20.86196268 -5.0625 26.25 C-6.52645224 32.22642885 -8.13879313 38.13437834 -10 44 C-10.33 44 -10.66 44 -11 44 C-11.02689216 42.52093108 -11.04634621 41.04172517 -11.0625 39.5625 C-11.07990234 38.32693359 -11.07990234 38.32693359 -11.09765625 37.06640625 C-11 35 -11 35 -10 34 C-9.814375 32.4840625 -9.814375 32.4840625 -9.625 30.9375 C-8.8031667 25.75995022 -7.01782607 21.26183571 -4.875 16.5 C-3.6579708 13.02277371 -3.37255074 9.66341559 -3 6 C-2.34 6 -1.68 6 -1 6 C-1.020625 5.195625 -1.04125 4.39125 -1.0625 3.5625 C-1 1 -1 1 0 0 Z " fill="#FEDF31" transform="translate(134,170)"/>
<path d="M0 0 C0.33 0 0.66 0 1 0 C1 2.97 1 5.94 1 9 C0.34 9 -0.32 9 -1 9 C-1.66 13.95 -2.32 18.9 -3 24 C-3.66 24 -4.32 24 -5 24 C-4.938125 25.010625 -4.87625 26.02125 -4.8125 27.0625 C-5.02110086 31.44311806 -5.92827667 34.15251381 -8 38 C-10.1875 39.9375 -10.1875 39.9375 -12 41 C-11.566875 39.7315625 -11.566875 39.7315625 -11.125 38.4375 C-9.99227296 34.97638959 -8.98175684 31.50627443 -8 28 C-7.34 28 -6.68 28 -6 28 C-5.95101562 27.3709375 -5.90203125 26.741875 -5.8515625 26.09375 C-5.0549446 16.97384854 -2.68264486 8.72753795 0 0 Z " fill="#FEE22D" transform="translate(108,180)"/>
<path d="M0 0 C-0.66 0 -1.32 0 -2 0 C-2.33 0.66 -2.66 1.32 -3 2 C-4.90480433 2.5012643 -6.81268523 2.99374668 -8.734375 3.42578125 C-11.01496238 4.00379219 -13.12532951 4.76228275 -15.3125 5.625 C-19 7 -19 7 -22 7 C-22 7.66 -22 8.32 -22 9 C-25.3 9.66 -28.6 10.32 -32 11 C-32 10.34 -32 9.68 -32 9 C-31.34 9 -30.68 9 -30 9 C-30 8.01 -30 7.02 -30 6 C-26.0186217 4.6728739 -22.14954773 4.93084087 -18 5 C-18 4.34 -18 3.68 -18 3 C-15.565036 2.30215669 -13.12772895 1.61646178 -10.6875 0.9375 C-9.65206055 0.63875977 -9.65206055 0.63875977 -8.59570312 0.33398438 C-3.33984375 -1.11328125 -3.33984375 -1.11328125 0 0 Z " fill="#F1EA40" transform="translate(182,122)"/>
<path d="M0 0 C1.5 1.375 1.5 1.375 3 3 C3 3.66 3 4.32 3 5 C4.32 5.33 5.64 5.66 7 6 C7.33 7.32 7.66 8.64 8 10 C8.99 10 9.98 10 11 10 C11.680625 11.175625 11.680625 11.175625 12.375 12.375 C13.75846547 15.19047081 13.75846547 15.19047081 16.5 16 C19.7630072 17.30520288 20.51972302 18.88362741 22 22 C22 22.66 22 23.32 22 24 C20 24 20 24 17.9375 22 C17.504375 21.54753906 17.07125 21.09507812 16.625 20.62890625 C13.93732291 17.9347684 11.04620479 15.47024856 8.18359375 12.96484375 C3.764 8.988 3.764 8.988 2 7 C2 6.01 2 5.02 2 4 C1.34 4 0.68 4 0 4 C0 2.68 0 1.36 0 0 Z " fill="#F5F1A5" transform="translate(318,367)"/>
<path d="M0 0 C0.33 0 0.66 0 1 0 C1.1875 2.875 1.1875 2.875 1 6 C0.01 6.66 -0.98 7.32 -2 8 C-2.99 7.34 -3.98 6.68 -5 6 C-7.71014561 5.72052691 -7.71014561 5.72052691 -10.625 5.8125 C-12.09839844 5.82216797 -12.09839844 5.82216797 -13.6015625 5.83203125 C-15.95177549 5.73311562 -15.95177549 5.73311562 -17 7 C-19.33944736 6.71269945 -21.6739143 6.38063221 -24 6 C-24 5.34 -24 4.68 -24 4 C-24.66 4 -25.32 4 -26 4 C-26.33 3.01 -26.66 2.02 -27 1 C-25.91972534 1.48218994 -25.91972534 1.48218994 -24.81762695 1.97412109 C-22.00993074 2.99638429 -19.88638701 3.30479557 -16.91796875 3.4140625 C-15.98662109 3.45273438 -15.05527344 3.49140625 -14.09570312 3.53125 C-13.13599609 3.5621875 -12.17628906 3.593125 -11.1875 3.625 C-10.20845703 3.66367188 -9.22941406 3.70234375 -8.22070312 3.7421875 C-5.81398626 3.83610816 -3.40726988 3.92178201 -1 4 C-0.67 2.68 -0.34 1.36 0 0 Z " fill="#FACB49" transform="translate(121,246)"/>
<path d="M0 0 C1.34345985 0.73170581 2.67460584 1.48605753 4 2.25 C4.7425 2.66765625 5.485 3.0853125 6.25 3.515625 C7.11625 4.25039063 7.11625 4.25039063 8 5 C8 6.32 8 7.64 8 9 C9.32 9.66 10.64 10.32 12 11 C-3.96666667 10.03333333 -3.96666667 10.03333333 -9 5 C-4.71 5.33 -0.42 5.66 4 6 C4 5.34 4 4.68 4 4 C3.01 4 2.02 4 1 4 C0.67 2.68 0.34 1.36 0 0 Z " fill="#EDF2AD" transform="translate(365,394)"/>
<path d="M0 0 C1.98 0 3.96 0 6 0 C-2.25684322 6.7881337 -14.00488963 5.24818922 -24.125 5.125 C-25.57291044 5.11494507 -27.02082768 5.10582368 -28.46875 5.09765625 C-31.97931037 5.07585344 -35.48961028 5.04146381 -39 5 C-39 4.67 -39 4.34 -39 4 C-38.15703369 3.97494385 -37.31406738 3.9498877 -36.44555664 3.92407227 C-33.32758326 3.82911845 -30.20978497 3.72987552 -27.09204102 3.62768555 C-25.74085853 3.58428777 -24.38961947 3.5426163 -23.03833008 3.50268555 C-21.09963299 3.44510048 -19.16113724 3.38085702 -17.22265625 3.31640625 C-16.05484619 3.27974854 -14.88703613 3.24309082 -13.68383789 3.20532227 C-11.08220205 3.29923812 -11.08220205 3.29923812 -10 2 C-8.31391034 1.92794489 -6.62499341 1.91613932 -4.9375 1.9375 C-4.01839844 1.94652344 -3.09929687 1.95554687 -2.15234375 1.96484375 C-1.44207031 1.97644531 -0.73179687 1.98804688 0 2 C0 1.34 0 0.68 0 0 Z " fill="#F3F2A6" transform="translate(416,401)"/>
<path d="M0 0 C2.39763185 2.39763185 2.34280586 3.33273498 2.625 6.625 C2.69976562 7.44226563 2.77453125 8.25953125 2.8515625 9.1015625 C2.92503906 10.04128906 2.92503906 10.04128906 3 11 C2.44570312 11.17015625 1.89140625 11.3403125 1.3203125 11.515625 C0.23363281 11.87914062 0.23363281 11.87914062 -0.875 12.25 C-1.59429687 12.48203125 -2.31359375 12.7140625 -3.0546875 12.953125 C-5.49169134 14.02390056 -5.49169134 14.02390056 -7 18 C-12.28 18 -17.56 18 -23 18 C-23 17.67 -23 17.34 -23 17 C-18.38 17 -13.76 17 -9 17 C-8.67 15.35 -8.34 13.7 -8 12 C-4.33634907 9.63898051 -2.40218532 9 2 9 C1.67 8.2575 1.34 7.515 1 6.75 C0 4 0 4 0 0 Z " fill="#FEDF33" transform="translate(127,232)"/>
<path d="M0 0 C0.33 0.99 0.66 1.98 1 3 C0.02989215 4.77853106 -0.9472666 6.55512012 -2.0078125 8.28125 C-3.0870279 10.150757 -3.65900675 11.86879216 -4 14 C-4.66 14 -5.32 14 -6 14 C-6.20625 14.886875 -6.4125 15.77375 -6.625 16.6875 C-8.38304358 20.92278682 -10.35373333 22.30493333 -14 25 C-13.56494141 24.15115234 -13.56494141 24.15115234 -13.12109375 23.28515625 C-11.64884466 20.28423041 -10.38262871 17.20606812 -9.09765625 14.12109375 C-8 12 -8 12 -6.46875 10.48046875 C-4.71490593 8.71263124 -4.19794234 7.23019856 -3.4375 4.875 C-2.74609375 2.7421875 -2.74609375 2.7421875 -2 1 C-1.34 0.67 -0.68 0.34 0 0 Z " fill="#F4EFA1" transform="translate(224,356)"/>
<path d="M0 0 C4.05196439 4.37612154 3.59746924 8.71893767 3.49609375 14.42578125 C2.78160114 19.57350359 0.71202007 23.36491299 -3 27 C-3.66 27 -4.32 27 -5 27 C-3.96737815 24.29929671 -2.9069432 21.84180344 -1.4375 19.34375 C0.33350934 15.22422827 0.34314001 12.03879098 0.1875 7.625 C0.16719727 6.52091797 0.16719727 6.52091797 0.14648438 5.39453125 C0.11144869 3.59603257 0.05765288 1.79791578 0 0 Z " fill="#F7922F" transform="translate(311,404)"/>
<path d="M0 0 C2.35171131 0.59861742 4.6859378 1.26924352 7 2 C7.33 2.66 7.66 3.32 8 4 C12.22615367 6.80202311 16.72667006 8.99568686 21.5 10.6875 C25 12 25 12 26 14 C22.14683037 13.3776187 18.96673701 12.21667646 15.4375 10.5625 C14.50808594 10.13066406 13.57867187 9.69882812 12.62109375 9.25390625 C10.40158196 8.19211298 8.19539834 7.11061328 6 6 C6 5.34 6 4.68 6 4 C4.35 3.67 2.7 3.34 1 3 C0.67 2.01 0.34 1.02 0 0 Z " fill="#F5E99B" transform="translate(90,387)"/>
<path d="M0 0 C0.7421875 1.72265625 0.7421875 1.72265625 1 4 C-0.6171875 6.18359375 -0.6171875 6.18359375 -2.875 8.4375 C-6.01798776 11.58596335 -7.51071196 13.52538194 -8 18 C-7.360625 18.268125 -6.72125 18.53625 -6.0625 18.8125 C-4 20 -4 20 -3 23 C-5.9719385 21.87548273 -8.33440687 20.77706209 -11 19 C-10.71648397 14.3219855 -8.57621064 12.14756227 -5.56640625 8.84765625 C-3.24745803 6.11233828 -1.67769813 3.16181571 0 0 Z " fill="#FEE729" transform="translate(95,221)"/>
<path d="M0 0 C0.6875 1.5625 0.6875 1.5625 1 4 C0.26635117 5.66738371 -0.46878027 7.33414336 -1.21411133 8.99633789 C-2.54000509 12.37676974 -3.08995331 15.86854628 -3.6875 19.4375 C-3.81705078 20.16904297 -3.94660156 20.90058594 -4.08007812 21.65429688 C-4.39429815 23.434877 -4.69824068 25.21726583 -5 27 C-5.66 27 -6.32 27 -7 27 C-7 28.98 -7 30.96 -7 33 C-7.99 33.495 -7.99 33.495 -9 34 C-8.505 29.545 -8.505 29.545 -8 25 C-7.34 25 -6.68 25 -6 25 C-6.03867188 24.00484375 -6.07734375 23.0096875 -6.1171875 21.984375 C-5.99560179 17.85046072 -5.24105123 14.19971322 -4.125 10.25 C-3.95097656 9.59128906 -3.77695313 8.93257812 -3.59765625 8.25390625 C-2.7251197 5.06753202 -1.85041497 2.77562246 0 0 Z " fill="#F9C751" transform="translate(107,181)"/>
<path d="M0 0 C-0.96679688 0.31453125 -1.93359375 0.6290625 -2.9296875 0.953125 C-4.24503027 1.38469011 -5.5601172 1.81703549 -6.875 2.25 C-7.8964209 2.58572021 -7.8964209 2.58572021 -8.93847656 2.92822266 C-13.74663303 4.52905059 -18.415279 6.33469915 -23.046875 8.3984375 C-25 9 -25 9 -28 8 C-25 6 -25 6 -21 6 C-21 5.34 -21 4.68 -21 4 C-17.12315913 2.80712589 -14.08378077 2 -10 2 C-10 1.34 -10 0.68 -10 0 C-6.26432828 -0.76411467 -3.65188082 -1.07174763 0 0 Z " fill="#DCD62A" transform="translate(246,99)"/>
<path d="M0 0 C-1.52941351 3.05882701 -3.94219546 3.68951234 -7 5 C-7.66 4.67 -8.32 4.34 -9 4 C-9 4.99 -9 5.98 -9 7 C-12.3 6.67 -15.6 6.34 -19 6 C-16.26999329 3.26999329 -13.08654533 2.48902094 -9.5 1.3125 C-8.81035156 1.07466797 -8.12070313 0.83683594 -7.41015625 0.59179688 C-2.24786849 -1.12393424 -2.24786849 -1.12393424 0 0 Z " fill="#E3DB22" transform="translate(203,91)"/>
<path d="M0 0 C0 0.33 0 0.66 0 1 C-1.59714844 0.98259766 -1.59714844 0.98259766 -3.2265625 0.96484375 C-12.496636 0.89510361 -21.78293591 0.86191739 -31 2 C-31.33 2.33 -31.66 2.66 -32 3 C-33.66617115 3.04063832 -35.33388095 3.042721 -37 3 C-29.29761202 -3.71259513 -9.49821124 -2.30592412 0 0 Z " fill="#F5902E" transform="translate(265,507)"/>
<path d="M0 0 C0.99 0.33 1.98 0.66 3 1 C2.67386719 2.03898438 2.34773437 3.07796875 2.01171875 4.1484375 C-0.37173005 11.75212262 -2.74055402 19.35829651 -5 27 C-5.33 27 -5.66 27 -6 27 C-6.31270072 21.05868623 -5.67275618 17.44831067 -3 12 C-1.20677764 8.01506141 -0.51085371 4.34225651 0 0 Z " fill="#DAD32F" transform="translate(143,134)"/>
<path d="M0 0 C0.33 0 0.66 0 1 0 C1.02578125 0.90878906 1.0515625 1.81757813 1.078125 2.75390625 C1.46199641 11.26014773 2.7444595 18.71740507 5.2578125 26.85546875 C5.96017506 29.83126803 6.09530989 31.20626654 5 34 C-1.52184417 24.06535518 -0.24384088 11.43342789 0 0 Z " fill="#F1C97A" transform="translate(310,330)"/>
<path d="M0 0 C0.33 0.99 0.66 1.98 1 3 C-3.60646787 5.156219 -7.8856431 6.5399512 -12.88671875 7.47265625 C-15.06276412 7.92331529 -15.06276412 7.92331529 -17.08203125 9.12109375 C-19 10 -19 10 -22 9 C-21.34 9 -20.68 9 -20 9 C-20 8.34 -20 7.68 -20 7 C-17.79567015 6.15450362 -15.58751467 5.32357186 -13.375 4.5 C-11.53035156 3.80390625 -11.53035156 3.80390625 -9.6484375 3.09375 C-6.18957134 2.05683081 -3.57814964 1.77980618 0 2 C0 1.34 0 0.68 0 0 Z " fill="#E0DA2B" transform="translate(268,88)"/>
<path d="M0 0 C-0.33 1.32 -0.66 2.64 -1 4 C-1.9590625 3.9071875 -1.9590625 3.9071875 -2.9375 3.8125 C-6.57453216 4.03517544 -9.44078405 5.1250891 -12.81640625 6.44140625 C-15.27777852 7.07105962 -16.62455145 6.8133622 -19 6 C-16.91780951 5.18457569 -14.83420239 4.37276811 -12.75 3.5625 C-11.58984375 3.11003906 -10.4296875 2.65757813 -9.234375 2.19140625 C-3.2852459 0 -3.2852459 0 0 0 Z " fill="#D6CE25" transform="translate(176,100)"/>
<path d="M0 0 C0.66 0.33 1.32 0.66 2 1 C-7.04100228 10 -7.04100228 10 -14 10 C-11.46357916 7.21423609 -8.59630744 5.28576938 -5.4375 3.25 C-4.46683594 2.61578125 -3.49617188 1.9815625 -2.49609375 1.328125 C-1.67238281 0.88984375 -0.84867187 0.4515625 0 0 Z " fill="#F8BD73" transform="translate(502,48)"/>
<path d="M0 0 C0.33 0 0.66 0 1 0 C0.52536543 4.8412726 -0.36561153 7.93865112 -3 12 C-3.12375 12.680625 -3.2475 13.36125 -3.375 14.0625 C-4.33585022 17.04113568 -6.52638104 18.22406844 -9 20 C-8.34 18.02 -7.68 16.04 -7 14 C-6.34 14 -5.68 14 -5 14 C-4.8453125 12.6696875 -4.8453125 12.6696875 -4.6875 11.3125 C-3.98187854 7.91268752 -2.87063987 5.88390313 -1 3 C-0.67 2.01 -0.34 1.02 0 0 Z " fill="#F2C777" transform="translate(225,356)"/>
<path d="M0 0 C0.33 0 0.66 0 1 0 C1.09765625 6.15234375 1.09765625 6.15234375 1 8 C0.67 8.33 0.34 8.66 0 9 C-0.07205511 10.68608966 -0.08386068 12.37500659 -0.0625 14.0625 C-0.05347656 14.98160156 -0.04445313 15.90070313 -0.03515625 16.84765625 C-0.02355469 17.55792969 -0.01195313 18.26820313 0 19 C-0.66 18.67 -1.32 18.34 -2 18 C-2 17.34 -2 16.68 -2 16 C-2.66 16 -3.32 16 -4 16 C-3.27275406 10.47293087 -1.66554027 5.30039859 0 0 Z " fill="#FAC451" transform="translate(126,204)"/>
<path d="M0 0 C2.87575868 0.11454804 5.75012112 0.2412847 8.625 0.375 C9.83736328 0.42140625 9.83736328 0.42140625 11.07421875 0.46875 C15.71838314 0.6952946 19.62693856 1.2592668 24 3 C24 3.33 24 3.66 24 4 C18.26861756 4.15490223 13.10650794 3.65244885 7.5 2.5 C6.77296875 2.35691406 6.0459375 2.21382812 5.296875 2.06640625 C3.52990929 1.71766302 1.76474691 1.35980277 0 1 C0 0.67 0 0.34 0 0 Z " fill="#6F5940" transform="translate(180,196)"/>
<path d="M0 0 C-2.55885226 1.01031065 -5.12140376 2.00840145 -7.6875 3 C-8.40873047 3.28617188 -9.12996094 3.57234375 -9.87304688 3.8671875 C-13.71040321 5.3390502 -16.81566589 6.39614998 -21 6 C-15.03013866 2.02009244 -7.26197763 -2.42065921 0 0 Z " fill="#65543C" transform="translate(390,187)"/>
<path d="M0 0 C0.33 0 0.66 0 1 0 C1.3690205 14.78132118 1.3690205 14.78132118 -1 21 C-1.66 21 -2.32 21 -3 21 C-3.1953125 14.9453125 -3.1953125 14.9453125 -3 13 C-2.34 12.34 -1.68 11.68 -1 11 C-0.53709779 8.33757179 -0.53709779 8.33757179 -0.375 5.375 C-0.30023438 4.37210938 -0.22546875 3.36921875 -0.1484375 2.3359375 C-0.09945313 1.56507813 -0.05046875 0.79421875 0 0 Z " fill="#645A4B" transform="translate(409,151)"/>
<path d="M0 0 C2.0625 0.4375 2.0625 0.4375 4 1 C3.41992188 1.25394531 2.83984375 1.50789063 2.2421875 1.76953125 C1.46101563 2.11371094 0.67984375 2.45789063 -0.125 2.8125 C-0.95128906 3.17472656 -1.77757812 3.53695313 -2.62890625 3.91015625 C-5.1565272 5.0297309 -5.1565272 5.0297309 -8.0625 6.75 C-11.94801555 8.40341087 -14.80294731 8.21708893 -19 8 C-19 7.67 -19 7.34 -19 7 C-17.88625 6.7525 -16.7725 6.505 -15.625 6.25 C-7.19461059 4.32071978 -7.19461059 4.32071978 0 0 Z " fill="#F4CC7B" transform="translate(431,397)"/>
<path d="M0 0 C0.66 0.33 1.32 0.66 2 1 C-1.96 4.96 -5.92 8.92 -10 13 C-10.33 12.01 -10.66 11.02 -11 10 C-8.35128286 5.86800126 -5.12621395 3.56742201 -1 1 C-0.67 0.67 -0.34 0.34 0 0 Z " fill="#F99230" transform="translate(250,378)"/>
<path d="M0 0 C1.5 1.375 1.5 1.375 3 3 C3 3.66 3 4.32 3 5 C3.598125 5.04125 4.19625 5.0825 4.8125 5.125 C8.14044403 6.45617761 8.62051664 8.80210675 10 12 C10.391875 12.78375 10.78375 13.5675 11.1875 14.375 C11.455625 14.91125 11.72375 15.4475 12 16 C4.4375 9.8125 4.4375 9.8125 2 7 C2 6.01 2 5.02 2 4 C1.34 4 0.68 4 0 4 C0 2.68 0 1.36 0 0 Z " fill="#F4D788" transform="translate(318,367)"/>
<path d="M0 0 C0.33 0.66 0.66 1.32 1 2 C0 4 -1 6 -2 8 C-3.10026542 11.30573018 -4.06487819 14.6441728 -5 18 C-5.66 18 -6.32 18 -7 18 C-6.59657725 11.81418444 -4.51160866 4.51160866 0 0 Z " fill="#F5F5A9" transform="translate(320,307)"/>
<path d="M0 0 C1.20220203 3.53094302 0.79532349 6.12898982 0.0625 9.75 C-0.13214844 10.73484375 -0.32679688 11.7196875 -0.52734375 12.734375 C-0.68332031 13.48203125 -0.83929688 14.2296875 -1 15 C-1.99 15.33 -2.98 15.66 -4 16 C-4.33 16.99 -4.66 17.98 -5 19 C-4.39297368 12.3227105 -2.22368606 6.29872004 0 0 Z " fill="#666427" transform="translate(142,146)"/>
<path d="M0 0 C0.66 0.33 1.32 0.66 2 1 C-1.49484501 5.97343328 -4.96142844 8.27338506 -10.875 9.6875 C-11.57625 9.790625 -12.2775 9.89375 -13 10 C-11.62198982 7.24397964 -9.47629172 6.52333732 -6.85546875 5.0859375 C-4.36571819 3.62877822 -2.19586183 1.86315549 0 0 Z " fill="#F3CA79" transform="translate(449,386)"/>
<path d="M0 0 C0.66 0.33 1.32 0.66 2 1 C2 2.32 2 3.64 2 5 C3.97245783 6.80035402 3.97245783 6.80035402 6.5 8.25 C7.3353125 8.77078125 8.170625 9.2915625 9.03125 9.828125 C9.6809375 10.21484375 10.330625 10.6015625 11 11 C8.37886292 11 6.49064888 10.68707555 4 10 C4 9.34 4 8.68 4 8 C2.35 7.67 0.7 7.34 -1 7 C-1.04254356 5.00045254 -1.04080783 2.99958364 -1 1 C-0.67 0.67 -0.34 0.34 0 0 Z " fill="#FCC94B" transform="translate(83,235)"/>
<path d="M0 0 C0.66 0 1.32 0 2 0 C1.67 1.98 1.34 3.96 1 6 C1.66 6 2.32 6 3 6 C5.02350324 9.03525486 5.32124018 10.19426202 5.625 13.6875 C5.69976562 14.49574219 5.77453125 15.30398437 5.8515625 16.13671875 C5.92503906 17.05904297 5.92503906 17.05904297 6 18 C5.34 18 4.68 18 4 18 C3.34 14.7 2.68 11.4 2 8 C1.34 8 0.68 8 0 8 C0 5.36 0 2.72 0 0 Z " fill="#FEDF31" transform="translate(121,214)"/>
<path d="M0 0 C0.86625 0.4640625 0.86625 0.4640625 1.75 0.9375 C3.84294184 1.92583364 5.74535275 2.5168613 8 3 C8 3.66 8 4.32 8 5 C8.66 5 9.32 5 10 5 C11.92152816 7.88229224 13.46387819 10.90127153 15 14 C13.86800647 13.0919838 12.74467637 12.17316174 11.625 11.25 C10.99851563 10.73953125 10.37203125 10.2290625 9.7265625 9.703125 C7.91411963 7.91528542 7.10962303 6.2626661 6 4 C4.67696283 3.6278958 3.34262065 3.29369827 2 3 C1.34 2.01 0.68 1.02 0 0 Z " fill="#F2CC7C" transform="translate(198,284)"/>
<path d="M0 0 C-0.99 0.33 -1.98 0.66 -3 1 C-3 2.32 -3 3.64 -3 5 C-6.96 5 -10.92 5 -15 5 C-12.30932731 3.20621821 -9.91421743 2.02686042 -6.9375 0.8125 C-5.62072266 0.26529297 -5.62072266 0.26529297 -4.27734375 -0.29296875 C-2 -1 -2 -1 0 0 Z " fill="#E4DD25" transform="translate(219,85)"/>
<path d="M0 0 C6.37872232 1.27574446 11.76015373 4.29376727 17 8 C14 9 14 9 10.875 7.6875 C8 6 8 6 7 4 C6.01 3.67 5.02 3.34 4 3 C3.01 2.67 2.02 2.34 1 2 C0.67 1.34 0.34 0.68 0 0 Z " fill="#F6F0A4" transform="translate(182,277)"/>
<path d="M0 0 C1.40823976 4.84821473 1.16349352 9.48855668 -0.9609375 14.07421875 C-1.91886183 15.74888789 -2.95331451 17.37932569 -4 19 C-5.27182008 16.45635984 -4.82067275 15.75536947 -4.00390625 13.0859375 C-3.66069336 11.94511719 -3.66069336 11.94511719 -3.31054688 10.78125 C-3.06369141 9.9871875 -2.81683594 9.193125 -2.5625 8.375 C-2.31951172 7.57320312 -2.07652344 6.77140625 -1.82617188 5.9453125 C-1.22395927 3.96155332 -0.61281311 1.98051018 0 0 Z " fill="#FBF142" transform="translate(117,150)"/>
<path d="M0 0 C0.33 0.99 0.66 1.98 1 3 C-2.3 3.66 -5.6 4.32 -9 5 C-9 4.34 -9 3.68 -9 3 C-8.34 3 -7.68 3 -7 3 C-7 2.01 -7 1.02 -7 0 C-4.3333581 -1.33332095 -2.83319697 -0.67102033 0 0 Z " fill="#DBD127" transform="translate(159,128)"/>
<path d="M0 0 C0.33 0 0.66 0 1 0 C1 2.64 1 5.28 1 8 C0.34 8 -0.32 8 -1 8 C-0.938125 9.27875 -0.87625 10.5575 -0.8125 11.875 C-0.70703125 14.0546875 -0.70703125 14.0546875 -1 16 C-1.99 16.66 -2.98 17.32 -4 18 C-3.31195504 11.80759538 -1.71951285 5.98044406 0 0 Z " fill="#F8F23C" transform="translate(124,124)"/>
<path d="M0 0 C1.63129887 4.06285757 0.29968777 7.20102184 -0.9375 11.25 C-1.31777344 12.51328125 -1.69804687 13.7765625 -2.08984375 15.078125 C-2.39019531 16.04234375 -2.69054687 17.0065625 -3 18 C-4.30660357 13.70272603 -3.6596762 10.39784135 -3 6 C-2.34 6 -1.68 6 -1 6 C-1.020625 5.195625 -1.04125 4.39125 -1.0625 3.5625 C-1 1 -1 1 0 0 Z " fill="#ECD632" transform="translate(134,170)"/>
<path d="M0 0 C0.66 0 1.32 0 2 0 C2 0.66 2 1.32 2 2 C2.886875 2.226875 3.77375 2.45375 4.6875 2.6875 C8.43380532 4.17188513 10.33729434 6.02403485 13 9 C10.03 8.505 10.03 8.505 7 8 C7 7.34 7 6.68 7 6 C6.34 6 5.68 6 5 6 C5 5.34 5 4.68 5 4 C4.360625 3.896875 3.72125 3.79375 3.0625 3.6875 C2.381875 3.460625 1.70125 3.23375 1 3 C0.67 2.01 0.34 1.02 0 0 Z " fill="#FDA445" transform="translate(252,440)"/>
<path d="M0 0 C12.63157895 3.42105263 12.63157895 3.42105263 18 7 C11.26119563 6.19134348 5.67068182 4.83604947 0 1 C0 0.67 0 0.34 0 0 Z " fill="#F3C97C" transform="translate(104,397)"/>
<path d="M0 0 C3.03716733 0.91821338 5.68302607 1.79980594 8.375 3.5 C11.83809201 5.47890972 15.10930238 6.14272764 19 7 C13.8108215 8.72972617 8.87132662 6.06662341 4 4 C4 3.34 4 2.68 4 2 C2.68 1.67 1.36 1.34 0 1 C0 0.67 0 0.34 0 0 Z " fill="#F2D07D" transform="translate(348,396)"/>
<path d="M0 0 C0.33 0 0.66 0 1 0 C1.36795695 3.2828659 1.3231932 4.58663012 -0.75 7.23828125 C-1.4925 7.92277344 -2.235 8.60726563 -3 9.3125 C-3.7425 10.00988281 -4.485 10.70726562 -5.25 11.42578125 C-5.8275 11.94527344 -6.405 12.46476562 -7 13 C-7.66 12.67 -8.32 12.34 -9 12 C-8.43410156 11.30132812 -7.86820312 10.60265625 -7.28515625 9.8828125 C-6.55167969 8.97273438 -5.81820313 8.06265625 -5.0625 7.125 C-4.33160156 6.22007812 -3.60070312 5.31515625 -2.84765625 4.3828125 C-0.9963748 2.15497253 -0.9963748 2.15497253 0 0 Z " fill="#F4C472" transform="translate(463,370)"/>
<path d="M0 0 C0.8971875 0.309375 0.8971875 0.309375 1.8125 0.625 C0.1625 1.285 -1.4875 1.945 -3.1875 2.625 C-3.5175 4.935 -3.8475 7.245 -4.1875 9.625 C-5.1775 9.955 -6.1675 10.285 -7.1875 10.625 C-6.93195946 9.16390937 -6.65749628 7.70611904 -6.375 6.25 C-6.22417969 5.43789062 -6.07335937 4.62578125 -5.91796875 3.7890625 C-4.8582667 0.64962434 -3.33536072 -0.57177612 0 0 Z " fill="#645F25" transform="translate(150.1875,133.375)"/>
<path d="M0 0 C3.95657333 3.95657333 5.12649619 10.5842764 6 16 C5.01 15.67 4.02 15.34 3 15 C2.05078125 12.63671875 2.05078125 12.63671875 1.3125 9.6875 C1.06113281 8.72199219 0.80976563 7.75648437 0.55078125 6.76171875 C0 4 0 4 0 0 Z " fill="#B0AA20" transform="translate(262,71)"/>
<path d="M0 0 C0.33 0 0.66 0 1 0 C1.50604984 6.98629919 1.0333905 11.20200116 -3 17 C-4.6168484 13.76630321 -3.00851816 10.69371743 -2.0625 7.375 C-1.76956055 6.31539063 -1.76956055 6.31539063 -1.47070312 5.234375 C-0.98685508 3.48780156 -0.49424877 1.74365876 0 0 Z " fill="#F4C879" transform="translate(472,345)"/>
<path d="M0 0 C1.42525611 2.85051222 0.7170425 4.75869954 0.1875 7.875 C0.01605469 8.92429688 -0.15539062 9.97359375 -0.33203125 11.0546875 C-0.92922415 13.68792404 -1.66709997 15.67164298 -3 18 C-3.02689216 16.52093108 -3.04634621 15.04172517 -3.0625 13.5625 C-3.07410156 12.73878906 -3.08570312 11.91507813 -3.09765625 11.06640625 C-3 9 -3 9 -2 8 C-1.835 6.845 -1.67 5.69 -1.5 4.5 C-1 1 -1 1 0 0 Z " fill="#FEE627" transform="translate(126,196)"/>
<path d="M0 0 C0 4.85089963 -2.40896448 7.38147446 -5.6875 10.8125 C-6.450625 11.534375 -7.21375 12.25625 -8 13 C-7.38768269 9.59398498 -6.1179601 7.52613637 -4 4.8125 C-3.195625 3.77029297 -3.195625 3.77029297 -2.375 2.70703125 C-1 1 -1 1 0 0 Z " fill="#FAC84B" transform="translate(93,222)"/>
<path d="M0 0 C0.66 0.33 1.32 0.66 2 1 C0.75 2.5 0.75 2.5 -1 4 C-2.32 4 -3.64 4 -5 4 C-5.33 4.99 -5.66 5.98 -6 7 C-6.66 7 -7.32 7 -8 7 C-7.67 8.32 -7.34 9.64 -7 11 C-7.66 10.67 -8.32 10.34 -9 10 C-9 8.68 -9 7.36 -9 6 C-6.30057745 3.45054537 -3.48923165 1.32350166 0 0 Z " fill="#F58F2D" transform="translate(226,510)"/>
<path d="M0 0 C-1.55367366 1.01365893 -3.11837836 2.01042256 -4.6875 3 C-5.99267578 3.8353125 -5.99267578 3.8353125 -7.32421875 4.6875 C-10.16973337 6.08325608 -11.8788594 6.26993648 -15 6 C-11.57875892 3.02500775 -4.44240633 -2.22120316 0 0 Z " fill="#F6C573" transform="translate(192,397)"/>
<path d="M0 0 C-1.44390925 3.80666984 -3.34952803 5.26602582 -7 7 C-7.66 6.67 -8.32 6.34 -9 6 C-7.8803014 4.99406757 -6.7540588 3.9954151 -5.625 3 C-4.68527344 2.1646875 -4.68527344 2.1646875 -3.7265625 1.3125 C-2 0 -2 0 0 0 Z " fill="#F4F5A8" transform="translate(342,285)"/>
<path d="M0 0 C0.66 0.66 1.32 1.32 2 2 C1.60467975 4.45098556 0.78698574 6.63904279 0 9 C-0.66 9 -1.32 9 -2 9 C-2 9.66 -2 10.32 -2 11 C-2.66 11 -3.32 11 -4 11 C-3.67 9.68 -3.34 8.36 -3 7 C-2.34 7 -1.68 7 -1 7 C-0.67 4.69 -0.34 2.38 0 0 Z " fill="#D7A566" transform="translate(409,165)"/>
<path d="M0 0 C-2.58535679 1.72357119 -4.03811614 2.44735018 -6.9375 3.1875 C-7.60652344 3.36667969 -8.27554688 3.54585938 -8.96484375 3.73046875 C-11.24680888 4.03268678 -12.82026659 3.68756692 -15 3 C-13.25531628 2.29911844 -11.50398839 1.61475991 -9.75 0.9375 C-8.77546875 0.55464844 -7.8009375 0.17179687 -6.796875 -0.22265625 C-3.95992605 -1.01113787 -2.70590448 -1.02437812 0 0 Z " fill="#F9F246" transform="translate(144,113)"/>
<path d="M0 0 C1.4384798 0.06423833 2.87666999 0.14163547 4.3125 0.25 C1.59310541 1.7076935 -0.93504273 2.67442664 -3.9375 3.375 C-5.175 3.66375 -6.4125 3.9525 -7.6875 4.25 C-5.84004374 0.30875998 -4.09551026 -0.02575793 0 0 Z " fill="#F3C675" transform="translate(363.6875,271.75)"/>
<path d="M0 0 C3.625 0.375 3.625 0.375 7 1 C3.83759418 3.10827055 2.49342531 3.33817465 -1.1875 3.625 C-2.53908203 3.73714844 -2.53908203 3.73714844 -3.91796875 3.8515625 C-4.94857422 3.92503906 -4.94857422 3.92503906 -6 4 C-5.38125 3.71125 -4.7625 3.4225 -4.125 3.125 C-1.86674235 2.06279958 -1.86674235 2.06279958 0 0 Z " fill="#6B5840" transform="translate(362,192)"/>
<path d="M0 0 C-2.70188004 1.80125336 -4.93057703 3.00243753 -8 4 C-8.99 3.67 -9.98 3.34 -11 3 C-7.48550811 -0.37391222 -4.73940561 -0.27342725 0 0 Z " fill="#E6E126" transform="translate(209,111)"/>
<path d="M0 0 C0.33 0.99 0.66 1.98 1 3 C-5.4 6.07692308 -5.4 6.07692308 -8.4375 5.6875 C-8.953125 5.460625 -9.46875 5.23375 -10 5 C-9.01 4.67 -8.02 4.34 -7 4 C-6.67 3.34 -6.34 2.68 -6 2 C-4.02 2 -2.04 2 0 2 C0 1.34 0 0.68 0 0 Z " fill="#96931A" transform="translate(268,88)"/>
<path d="M0 0 C2.875 0.25 2.875 0.25 6 1 C7.375 3.0625 7.375 3.0625 8 5 C4.33776842 4.50510384 2.33006074 3.94323463 0 1 C0 0.67 0 0.34 0 0 Z " fill="#F5D98C" transform="translate(340,391)"/>
<path d="M0 0 C4.43458973 1.3937282 6.87378374 3.60582235 10 7 C9.67 7.66 9.34 8.32 9 9 C7.49704815 7.69088122 5.99770689 6.37761608 4.5 5.0625 C3.6646875 4.33160156 2.829375 3.60070312 1.96875 2.84765625 C1.3190625 2.23792969 0.669375 1.62820313 0 1 C0 0.67 0 0.34 0 0 Z " fill="#F2CC7E" transform="translate(444,285)"/>
<path d="M0 0 C1.98 0 3.96 0 6 0 C6.33 0.66 6.66 1.32 7 2 C7.99 2.33 8.98 2.66 10 3 C10 3.66 10 4.32 10 5 C8.51800098 4.55090939 7.03944764 4.09043436 5.5625 3.625 C4.73878906 3.36976563 3.91507813 3.11453125 3.06640625 2.8515625 C1 2 1 2 0 0 Z " fill="#6D583F" transform="translate(140,183)"/>
<path d="M0 0 C0.33 0 0.66 0 1 0 C1.1875 2.875 1.1875 2.875 1 6 C0.01 6.66 -0.98 7.32 -2 8 C-2.99 7.01 -3.98 6.02 -5 5 C-3.68 5 -2.36 5 -1 5 C-0.67 3.35 -0.34 1.7 0 0 Z " fill="#FBC155" transform="translate(121,246)"/>
<path d="M0 0 C-4.95 1.485 -4.95 1.485 -10 3 C-10 2.01 -10 1.02 -10 0 C-6.05523353 -0.80688405 -4.00001715 -1.00000429 0 0 Z " fill="#C8C01F" transform="translate(246,99)"/>
<path d="M0 0 C0 3 0 3 -1.53125 4.60546875 C-2.1809375 5.12753906 -2.830625 5.64960938 -3.5 6.1875 C-4.1496875 6.71730469 -4.799375 7.24710937 -5.46875 7.79296875 C-5.9740625 8.19128906 -6.479375 8.58960938 -7 9 C-5.27845212 5.23511958 -3.00765886 2.84936103 0 0 Z " fill="#F6F1A3" transform="translate(331,293)"/>
<path d="M0 0 C0.70125 0.144375 1.4025 0.28875 2.125 0.4375 C5.07556141 1.01478375 8.03270151 1.51695141 11 2 C11 2.99 11 3.98 11 5 C6.69159287 3.92289822 3.36423277 2.96052484 0 0 Z " fill="#F3CA7B" transform="translate(182,276)"/>
<path d="M0 0 C1.98 0 3.96 0 6 0 C6.33 0.99 6.66 1.98 7 3 C7.99 3.33 8.98 3.66 10 4 C6.44219804 3.39009109 3.3171411 2.4216319 0 1 C0 0.67 0 0.34 0 0 Z " fill="#F4CF82" transform="translate(172,272)"/>
<path d="M0 0 C0.556875 0.226875 1.11375 0.45375 1.6875 0.6875 C-2.74326923 3.76442308 -2.74326923 3.76442308 -5.625 3.375 C-6.4603125 3.0346875 -6.4603125 3.0346875 -7.3125 2.6875 C-2.88173077 -0.38942308 -2.88173077 -0.38942308 0 0 Z " fill="#F4EA9E" transform="translate(112.3125,276.3125)"/>
</svg>
